<svg width="168" height="55" viewBox="0 0 168 55" fill="none" xmlns="http://www.w3.org/2000/svg">
<g id="Group 63542">
<g id="Group 63476">
<path id="Vector" d="M57.6455 16.6852C56.7777 16.6852 56.0189 16.5183 55.3645 16.1845C54.7101 15.8364 54.2027 15.3596 53.847 14.7444C53.4914 14.1293 53.3159 13.4187 53.3159 12.6176V8.74548C53.3159 7.93958 53.4961 7.23382 53.847 6.61867C54.2027 6.00351 54.7101 5.53142 55.3645 5.19285C56.0189 4.85904 56.7824 4.69214 57.6455 4.69214C58.5086 4.69214 59.2483 4.85427 59.8933 5.17854C60.5477 5.49327 61.0551 5.94152 61.4108 6.5376C61.7759 7.11937 61.9608 7.79175 61.9608 8.56427C61.9608 8.66441 61.8945 8.7264 61.7617 8.75025L59.8127 8.86946H59.7795C59.6704 8.86946 59.6135 8.80747 59.6135 8.68348C59.6135 8.09217 59.4285 7.61531 59.0634 7.25766C58.7077 6.90002 58.2335 6.72358 57.6455 6.72358C57.0575 6.72358 56.5643 6.90002 56.1944 7.25766C55.8387 7.61531 55.6633 8.0874 55.6633 8.68348V12.7225C55.6633 13.3043 55.8435 13.7716 56.1944 14.1293C56.5595 14.4869 57.0432 14.6633 57.6455 14.6633C58.2477 14.6633 58.7077 14.4869 59.0634 14.1293C59.4285 13.7716 59.6135 13.3043 59.6135 12.7225C59.6135 12.5985 59.6799 12.5365 59.8127 12.5365L61.7617 12.6224C61.8186 12.6224 61.8613 12.6414 61.8945 12.6748C61.9371 12.7082 61.9608 12.7464 61.9608 12.794C61.9608 13.5666 61.7759 14.2437 61.4108 14.8398C61.0551 15.4311 60.5477 15.8889 59.8933 16.2132C59.2483 16.5374 58.4991 16.6996 57.6455 16.6996V16.6852ZM70.8381 16.5517C70.7291 16.5517 70.6532 16.4945 70.62 16.3848L70.1221 14.7444C70.0984 14.7015 70.0699 14.6777 70.0367 14.6777H65.9395C65.9063 14.6777 65.8779 14.7015 65.8541 14.7444L65.3704 16.3848C65.3372 16.4945 65.2661 16.5517 65.1523 16.5517H63.0373C62.9709 16.5517 62.9188 16.5327 62.8856 16.4993C62.8524 16.4564 62.8476 16.3944 62.8666 16.3133L66.4659 4.98779C66.4991 4.87812 66.5702 4.82089 66.684 4.82089H69.3017C69.4108 4.82089 69.4866 4.87812 69.5198 4.98779L73.1191 16.3133C73.1191 16.3133 73.1333 16.3658 73.1333 16.3991C73.1333 16.4993 73.0717 16.5517 72.9484 16.5517H70.8334H70.8381ZM66.4564 12.7511C66.4469 12.8179 66.4659 12.8513 66.5228 12.8513H69.4534C69.5198 12.8513 69.5435 12.8179 69.5198 12.7511L68.0213 7.77744C68.0118 7.73453 67.9928 7.71545 67.9691 7.72499C67.9454 7.72499 67.9312 7.74406 67.917 7.77744L66.4517 12.7511H66.4564ZM74.8026 16.5517C74.7457 16.5517 74.6982 16.5327 74.6508 16.4993C74.6176 16.4564 74.6034 16.4039 74.6034 16.3467V5.02594C74.6034 4.96872 74.6224 4.9258 74.6508 4.89242C74.6935 4.8495 74.7457 4.82566 74.8026 4.82566H76.7516C76.8085 4.82566 76.8512 4.8495 76.8844 4.89242C76.927 4.9258 76.9508 4.96872 76.9508 5.02594V14.4392C76.9508 14.4964 76.9792 14.5251 77.0361 14.5251H82.4848C82.5417 14.5251 82.5844 14.5489 82.6176 14.5918C82.6603 14.6252 82.684 14.6681 82.684 14.7253V16.3514C82.684 16.4087 82.6603 16.4564 82.6176 16.504C82.5844 16.5374 82.5417 16.5565 82.4848 16.5565H74.8026V16.5517ZM88.1043 16.6852C87.2507 16.6852 86.4919 16.5136 85.8375 16.1655C85.1831 15.8174 84.671 15.3405 84.3058 14.7253C83.9502 14.1006 83.7747 13.3806 83.7747 12.5652V8.81224C83.7747 7.9968 83.9549 7.27674 84.3058 6.65205C84.671 6.02736 85.1831 5.54572 85.8375 5.21192C86.4919 4.86381 87.2507 4.69214 88.1043 4.69214C88.9579 4.69214 89.6929 4.85904 90.3378 5.19285C90.9922 5.52665 91.4997 5.98444 91.8553 6.56621C92.2205 7.13368 92.4054 7.77268 92.4054 8.47843V8.59765C92.4054 8.65487 92.3817 8.70256 92.339 8.75025C92.3058 8.78363 92.2631 8.8027 92.2062 8.8027H90.2572C90.2003 8.8027 90.1529 8.78363 90.1055 8.75025C90.0723 8.70733 90.058 8.65487 90.058 8.59765V8.54519C90.058 8.03018 89.8778 7.601 89.5269 7.25289C89.1713 6.89525 88.7018 6.71881 88.109 6.71881C87.5162 6.71881 87.0278 6.90955 86.6579 7.28627C86.3023 7.65346 86.1268 8.13986 86.1268 8.74548V12.6319C86.1268 13.2328 86.3212 13.7287 86.7101 14.1054C87.0989 14.4726 87.5921 14.6586 88.1944 14.6586C88.7966 14.6586 89.2329 14.506 89.5791 14.2056C89.9253 13.8908 90.096 13.4617 90.096 12.9133V12.1598C90.096 12.1026 90.0675 12.074 90.0106 12.074H88.147C88.09 12.074 88.0426 12.0549 87.9952 12.0215C87.962 11.9786 87.9478 11.9262 87.9478 11.8689V10.3287C87.9478 10.2714 87.9668 10.2285 87.9952 10.1951C88.0379 10.1522 88.09 10.1284 88.147 10.1284H92.211C92.2679 10.1284 92.3106 10.1522 92.3438 10.1951C92.3864 10.2285 92.4101 10.2714 92.4101 10.3287V12.5413C92.4101 13.3901 92.2347 14.1293 91.879 14.754C91.5234 15.3786 91.0159 15.8603 90.3615 16.1941C89.7166 16.5183 88.9673 16.6805 88.1138 16.6805L88.1043 16.6852ZM101.359 16.5517C101.249 16.5517 101.174 16.4945 101.14 16.3848L100.643 14.7444C100.619 14.7015 100.59 14.6777 100.557 14.6777H96.4599C96.4267 14.6777 96.3983 14.7015 96.3746 14.7444L95.8909 16.3848C95.8577 16.4945 95.7865 16.5517 95.6727 16.5517H93.5577C93.4913 16.5517 93.4392 16.5327 93.406 16.4993C93.3728 16.4564 93.3681 16.3944 93.387 16.3133L96.9863 4.98779C97.0195 4.87812 97.0906 4.82089 97.2044 4.82089H99.8221C99.9312 4.82089 100.007 4.87812 100.04 4.98779L103.64 16.3133C103.64 16.3133 103.659 16.3658 103.659 16.3991C103.659 16.4993 103.597 16.5517 103.474 16.5517H101.359ZM96.9768 12.7511C96.9673 12.8179 96.9863 12.8513 97.0432 12.8513H99.9739C100.04 12.8513 100.064 12.8179 100.04 12.7511L98.5417 7.77744C98.5322 7.73453 98.5133 7.71545 98.4943 7.72499C98.4706 7.72499 98.4564 7.74406 98.4422 7.77744L96.9768 12.7511ZM111.521 16.5517C111.412 16.5517 111.331 16.4993 111.289 16.3991L109.207 11.7593C109.183 11.7163 109.15 11.6925 109.107 11.6925H107.557C107.5 11.6925 107.471 11.7211 107.471 11.7783V16.3514C107.471 16.4087 107.447 16.4564 107.405 16.504C107.372 16.5374 107.329 16.5565 107.272 16.5565H105.323C105.266 16.5565 105.219 16.5374 105.171 16.504C105.138 16.4611 105.124 16.4087 105.124 16.3514V5.02594C105.124 4.96872 105.138 4.9258 105.171 4.89242C105.214 4.8495 105.266 4.82566 105.323 4.82566H110.089C110.8 4.82566 111.421 4.96872 111.953 5.25961C112.498 5.55049 112.915 5.96536 113.204 6.49945C113.503 7.03354 113.655 7.65346 113.655 8.35922C113.655 9.11743 113.465 9.77073 113.091 10.3191C112.711 10.8532 112.185 11.2347 111.507 11.4588C111.45 11.4827 111.436 11.5208 111.455 11.578L113.721 16.3181C113.745 16.361 113.755 16.3944 113.755 16.4182C113.755 16.5088 113.693 16.5517 113.57 16.5517H111.521ZM107.557 6.85233C107.5 6.85233 107.471 6.88094 107.471 6.93816V9.80411C107.471 9.86134 107.5 9.88995 107.557 9.88995H109.738C110.203 9.88995 110.582 9.75166 110.871 9.47031C111.17 9.18896 111.322 8.82654 111.322 8.38306C111.322 7.93958 111.17 7.57239 110.871 7.29581C110.582 7.00493 110.207 6.86187 109.738 6.86187H107.557V6.85233ZM118.018 16.5374C117.961 16.5374 117.913 16.5183 117.866 16.485C117.833 16.442 117.819 16.3896 117.819 16.3324V12.0931C117.819 12.0501 117.814 12.0168 117.8 11.9929L114.366 5.05932C114.343 5.01641 114.333 4.98302 114.333 4.95918C114.333 4.86858 114.395 4.82566 114.518 4.82566H116.619C116.733 4.82566 116.808 4.87812 116.851 4.97826L118.933 9.43693C118.966 9.50369 118.999 9.50369 119.033 9.43693L121.114 4.97826C121.157 4.87812 121.238 4.82566 121.347 4.82566H123.481C123.557 4.82566 123.609 4.8495 123.632 4.89242C123.666 4.9258 123.666 4.98303 123.632 5.05932L120.166 11.9929C120.166 11.9929 120.147 12.0501 120.147 12.0931V16.3324C120.147 16.3896 120.123 16.4373 120.081 16.485C120.047 16.5183 120.005 16.5374 119.948 16.5374H118.013H118.018ZM58.3616 20.071C59.0966 20.071 59.7368 20.2236 60.2964 20.524C60.8512 20.8244 61.278 21.2536 61.5815 21.8163C61.8945 22.3647 62.0462 22.9942 62.0462 23.7094C62.0462 24.4247 61.885 25.0351 61.5625 25.5692C61.2495 26.1033 60.8085 26.5229 60.23 26.8234C59.6656 27.1142 59.0065 27.2573 58.262 27.2573H55.8956C55.8387 27.2573 55.8103 27.2859 55.8103 27.3431V31.6158C55.8103 31.6731 55.7866 31.7207 55.7439 31.7684C55.7107 31.8018 55.668 31.8209 55.6111 31.8209H53.6621C53.6052 31.8209 53.5578 31.8018 53.5103 31.7684C53.4772 31.7255 53.4582 31.6731 53.4582 31.6158V20.276C53.4582 20.2188 53.4772 20.1759 53.5103 20.1425C53.553 20.0996 53.6052 20.0757 53.6621 20.0757H58.3616V20.071ZM58.0106 25.3642C58.5228 25.3642 58.9306 25.2211 59.2436 24.9302C59.5566 24.6298 59.7083 24.2388 59.7083 23.7571C59.7083 23.2755 59.5518 22.8702 59.2436 22.5697C58.9354 22.2693 58.5228 22.1167 58.0106 22.1167H55.8956C55.8387 22.1167 55.8103 22.1453 55.8103 22.2026V25.2831C55.8103 25.3403 55.8387 25.3689 55.8956 25.3689H58.0106V25.3642ZM69.885 31.8161C69.7759 31.8161 69.6953 31.7637 69.6526 31.6635L67.5708 27.0236C67.5471 26.9807 67.5139 26.9569 67.4712 26.9569H65.9205C65.8636 26.9569 65.8352 26.9855 65.8352 27.0427V31.6158C65.8352 31.6731 65.8115 31.7207 65.7688 31.7684C65.7356 31.8018 65.6929 31.8209 65.636 31.8209H63.687C63.6301 31.8209 63.5827 31.8018 63.5352 31.7684C63.502 31.7255 63.4878 31.6731 63.4878 31.6158V20.2903C63.4878 20.2331 63.5068 20.1902 63.5352 20.1568C63.5779 20.1139 63.6301 20.0901 63.687 20.0901H68.4528C69.1642 20.0901 69.7854 20.2331 70.3212 20.524C70.8666 20.8149 71.2839 21.2298 71.5684 21.7638C71.8672 22.2979 72.0189 22.9179 72.0189 23.6236C72.0189 24.3818 71.8292 25.0351 71.4546 25.5835C71.0752 26.1176 70.5489 26.4991 69.8707 26.7232C69.8138 26.7471 69.7996 26.7852 69.8233 26.8424L72.0901 31.5825C72.1138 31.6254 72.1233 31.6588 72.1233 31.6826C72.1233 31.7732 72.0616 31.8161 71.9383 31.8161H69.8897H69.885ZM65.9205 22.1167C65.8636 22.1167 65.8352 22.1453 65.8352 22.2026V25.0685C65.8352 25.1257 65.8636 25.1543 65.9205 25.1543H68.1019C68.5667 25.1543 68.946 25.016 69.2353 24.7347C69.534 24.4534 69.6858 24.0909 69.6858 23.6475C69.6858 23.204 69.534 22.8368 69.2353 22.5602C68.946 22.2693 68.5714 22.1263 68.1019 22.1263H65.9205V22.1167ZM77.8707 32.0021C77.0029 32.0021 76.2394 31.8257 75.5708 31.468C74.9164 31.1104 74.4042 30.6144 74.0391 29.9754C73.6739 29.3269 73.489 28.583 73.489 27.7485V24.1625C73.489 23.3375 73.6739 22.6031 74.0391 21.9689C74.4042 21.3347 74.9164 20.8387 75.5708 20.4954C76.2394 20.1377 77.0029 19.9613 77.8707 19.9613C78.7385 19.9613 79.5163 20.1377 80.1707 20.4954C80.8346 20.8435 81.3515 21.3347 81.7213 21.9689C82.0865 22.6079 82.2714 23.3375 82.2714 24.1625V27.7485C82.2714 28.5878 82.0865 29.3269 81.7213 29.9754C81.3562 30.624 80.8393 31.1247 80.1707 31.4823C79.5163 31.8304 78.748 32.0021 77.8707 32.0021ZM77.8707 29.9754C78.4825 29.9754 78.9757 29.7799 79.355 29.3889C79.7344 28.9979 79.9241 28.4781 79.9241 27.8295V24.1434C79.9241 23.4949 79.7344 22.9751 79.355 22.584C78.9899 22.1835 78.4967 21.9832 77.8707 21.9832C77.2448 21.9832 76.7658 22.1835 76.3864 22.584C76.0213 22.9751 75.8364 23.4949 75.8364 24.1434V27.8295C75.8364 28.4781 76.0213 28.9979 76.3864 29.3889C76.7658 29.7799 77.259 29.9754 77.8707 29.9754ZM92.1493 21.9164C92.1493 21.9737 92.1256 22.0213 92.0829 22.069C92.0497 22.1024 92.0071 22.1215 91.9502 22.1215H86.5014C86.4445 22.1215 86.4161 22.1501 86.4161 22.2073V24.8062C86.4161 24.8635 86.4445 24.8921 86.5014 24.8921H90.0817C90.1387 24.8921 90.1813 24.9159 90.2145 24.9588C90.2572 24.9922 90.2809 25.0351 90.2809 25.0923V26.7185C90.2809 26.7757 90.2572 26.8234 90.2145 26.871C90.1813 26.9044 90.1387 26.9235 90.0817 26.9235H86.5014C86.4445 26.9235 86.4161 26.9521 86.4161 27.0093V31.6349C86.4161 31.6921 86.3924 31.7398 86.3497 31.7875C86.3165 31.8209 86.2738 31.84 86.2169 31.84H84.2679C84.211 31.84 84.1636 31.8209 84.1161 31.7875C84.0829 31.7446 84.064 31.6921 84.064 31.6349V20.3094C84.064 20.2522 84.0829 20.2093 84.1161 20.1759C84.1588 20.133 84.211 20.1091 84.2679 20.1091H91.9502C92.0071 20.1091 92.0497 20.133 92.0829 20.1759C92.1256 20.2093 92.1493 20.2522 92.1493 20.3094V21.9355V21.9164ZM101.487 21.9164C101.487 21.9737 101.463 22.0213 101.42 22.069C101.387 22.1024 101.344 22.1215 101.287 22.1215H95.8245C95.7676 22.1215 95.7391 22.1501 95.7391 22.2073V24.8062C95.7391 24.8635 95.7676 24.8921 95.8245 24.8921H99.4048C99.4617 24.8921 99.5044 24.9159 99.5376 24.9588C99.5803 24.9922 99.604 25.0351 99.604 25.0923V26.7185C99.604 26.7757 99.5803 26.8234 99.5376 26.871C99.5044 26.9044 99.4617 26.9235 99.4048 26.9235H95.8245C95.7676 26.9235 95.7391 26.9521 95.7391 27.0093V29.7227C95.7391 29.7799 95.7676 29.8085 95.8245 29.8085H101.287C101.344 29.8085 101.387 29.8324 101.42 29.8753C101.463 29.9087 101.487 29.9516 101.487 30.0088V31.6349C101.487 31.6921 101.463 31.7398 101.42 31.7875C101.387 31.8209 101.344 31.84 101.287 31.84H93.5909C93.534 31.84 93.4866 31.8209 93.4392 31.7875C93.406 31.7446 93.3918 31.6921 93.3918 31.6349V20.3094C93.3918 20.2522 93.406 20.2093 93.4392 20.1759C93.4819 20.133 93.534 20.1091 93.5909 20.1091H101.287C101.344 20.1091 101.387 20.133 101.42 20.1759C101.463 20.2093 101.487 20.2522 101.487 20.3094V21.9355V21.9164ZM107.116 31.9496C106.229 31.9496 105.451 31.8114 104.782 31.53C104.118 31.2391 103.597 30.8338 103.232 30.3092C102.876 29.7751 102.701 29.1552 102.701 28.4495V28.0823C102.701 28.0251 102.715 27.9821 102.753 27.9488C102.795 27.9058 102.848 27.882 102.905 27.882H104.806C104.863 27.882 104.906 27.9058 104.939 27.9488C104.982 27.9821 105.005 28.0251 105.005 28.0823V28.335C105.005 28.7833 105.209 29.16 105.622 29.4747C106.034 29.7751 106.589 29.9277 107.286 29.9277C107.874 29.9277 108.315 29.8038 108.605 29.5606C108.894 29.3031 109.036 28.9931 109.036 28.6211C109.036 28.3541 108.946 28.13 108.771 27.9488C108.595 27.758 108.348 27.5959 108.04 27.4624C107.741 27.3193 107.258 27.1238 106.589 26.8758C105.845 26.6183 105.214 26.356 104.692 26.089C104.18 25.8219 103.749 25.4595 103.393 25.0017C103.047 24.5344 102.876 23.9574 102.876 23.2755C102.876 22.5936 103.047 22.0213 103.393 21.5159C103.739 21.0152 104.213 20.6289 104.825 20.3619C105.437 20.0948 106.143 19.9613 106.94 19.9613C107.784 19.9613 108.533 20.1139 109.188 20.4143C109.852 20.7147 110.369 21.1392 110.739 21.6875C111.118 22.2216 111.303 22.8511 111.303 23.5616V23.8144C111.303 23.8716 111.279 23.9193 111.236 23.9669C111.203 24.0003 111.161 24.0194 111.104 24.0194H109.188C109.131 24.0194 109.084 24.0003 109.036 23.9669C109.003 23.924 108.984 23.8716 108.984 23.8144V23.6808C108.984 23.2135 108.79 22.8129 108.401 22.4934C108.021 22.1596 107.5 21.9927 106.836 21.9927C106.314 21.9927 105.902 22.1024 105.603 22.3265C105.314 22.5507 105.171 22.8559 105.171 23.2469C105.171 23.5282 105.257 23.7619 105.423 23.9526C105.603 24.1434 105.854 24.3151 106.191 24.4724C106.537 24.6155 107.063 24.8205 107.775 25.0733C108.562 25.3642 109.178 25.6217 109.624 25.8458C110.079 26.0699 110.482 26.4037 110.838 26.852C111.203 27.2859 111.388 27.8582 111.388 28.5591C111.388 29.6082 111.004 30.4428 110.241 31.0531C109.472 31.654 108.434 31.9592 107.125 31.9592L107.116 31.9496ZM117.022 31.9496C116.135 31.9496 115.357 31.8114 114.689 31.53C114.025 31.2391 113.508 30.8338 113.138 30.3092C112.782 29.7751 112.607 29.1552 112.607 28.4495V28.0823C112.607 28.0251 112.626 27.9821 112.659 27.9488C112.702 27.9058 112.754 27.882 112.811 27.882H114.712C114.769 27.882 114.812 27.9058 114.845 27.9488C114.888 27.9821 114.912 28.0251 114.912 28.0823V28.335C114.912 28.7833 115.116 29.16 115.528 29.4747C115.941 29.7751 116.495 29.9277 117.193 29.9277C117.781 29.9277 118.222 29.8038 118.506 29.5606C118.795 29.3031 118.938 28.9931 118.938 28.6211C118.938 28.3541 118.848 28.13 118.672 27.9488C118.497 27.758 118.25 27.5959 117.942 27.4624C117.643 27.3193 117.159 27.1238 116.491 26.8758C115.746 26.6183 115.116 26.356 114.589 26.089C114.077 25.8219 113.645 25.4595 113.29 25.0017C112.944 24.5344 112.773 23.9574 112.773 23.2755C112.773 22.5936 112.944 22.0213 113.29 21.5159C113.636 21.0152 114.11 20.6289 114.722 20.3619C115.334 20.0948 116.04 19.9613 116.837 19.9613C117.681 19.9613 118.43 20.1139 119.085 20.4143C119.749 20.7147 120.265 21.1392 120.635 21.6875C121.015 22.2216 121.2 22.8511 121.2 23.5616V23.8144C121.2 23.8716 121.176 23.9193 121.133 23.9669C121.1 24.0003 121.057 24.0194 121.001 24.0194H119.085C119.028 24.0194 118.98 24.0003 118.933 23.9669C118.9 23.924 118.881 23.8716 118.881 23.8144V23.6808C118.881 23.2135 118.686 22.8129 118.298 22.4934C117.918 22.1596 117.396 21.9927 116.733 21.9927C116.211 21.9927 115.798 22.1024 115.5 22.3265C115.21 22.5507 115.068 22.8559 115.068 23.2469C115.068 23.5282 115.153 23.7619 115.319 23.9526C115.5 24.1434 115.751 24.3151 116.088 24.4724C116.434 24.6155 116.96 24.8205 117.672 25.0733C118.459 25.3642 119.075 25.6217 119.521 25.8458C119.976 26.0699 120.384 26.4037 120.74 26.852C121.105 27.2859 121.29 27.8582 121.29 28.5591C121.29 29.6082 120.906 30.4428 120.142 31.0531C119.374 31.654 118.335 31.9592 117.027 31.9592L117.022 31.9496ZM123.13 31.8161C123.073 31.8161 123.025 31.797 122.978 31.7637C122.945 31.7207 122.931 31.6683 122.931 31.6111V20.2856C122.931 20.2283 122.945 20.1854 122.978 20.152C123.021 20.1091 123.073 20.0853 123.13 20.0853H125.079C125.136 20.0853 125.178 20.1091 125.212 20.152C125.254 20.1854 125.278 20.2283 125.278 20.2856V31.6111C125.278 31.6683 125.254 31.716 125.212 31.7637C125.178 31.797 125.136 31.8161 125.079 31.8161H123.13ZM131.457 32.0021C130.589 32.0021 129.826 31.8257 129.157 31.468C128.503 31.1104 127.99 30.6144 127.625 29.9754C127.26 29.3269 127.075 28.583 127.075 27.7485V24.1625C127.075 23.3375 127.26 22.6031 127.625 21.9689C127.99 21.3347 128.503 20.8387 129.157 20.4954C129.826 20.1377 130.589 19.9613 131.457 19.9613C132.325 19.9613 133.102 20.1377 133.757 20.4954C134.421 20.8435 134.938 21.3347 135.308 21.9689C135.673 22.6079 135.858 23.3375 135.858 24.1625V27.7485C135.858 28.5878 135.673 29.3269 135.308 29.9754C134.942 30.624 134.426 31.1247 133.757 31.4823C133.102 31.8304 132.334 32.0021 131.457 32.0021ZM131.457 29.9754C132.069 29.9754 132.562 29.7799 132.941 29.3889C133.321 28.9979 133.506 28.4781 133.506 27.8295V24.1434C133.506 23.4949 133.316 22.9751 132.941 22.584C132.576 22.1835 132.078 21.9832 131.457 21.9832C130.836 21.9832 130.352 22.1835 129.973 22.584C129.608 22.9751 129.423 23.4949 129.423 24.1434V27.8295C129.423 28.4781 129.608 28.9979 129.973 29.3889C130.352 29.7799 130.845 29.9754 131.457 29.9754ZM144.356 20.2903C144.356 20.2331 144.375 20.1902 144.403 20.1568C144.446 20.1139 144.498 20.0901 144.555 20.0901H146.504C146.561 20.0901 146.603 20.1139 146.637 20.1568C146.679 20.1902 146.703 20.2331 146.703 20.2903V31.6158C146.703 31.6731 146.679 31.7207 146.637 31.7684C146.603 31.8018 146.561 31.8209 146.504 31.8209H144.621C144.512 31.8209 144.431 31.778 144.389 31.6874L140.073 24.5153C140.05 24.482 140.031 24.4724 140.007 24.482C139.983 24.482 139.974 24.5058 139.974 24.5487L140.007 31.6206C140.007 31.6778 139.983 31.7255 139.941 31.7732C139.907 31.8066 139.865 31.8257 139.808 31.8257H137.859C137.802 31.8257 137.755 31.8066 137.707 31.7732C137.674 31.7303 137.655 31.6778 137.655 31.6206V20.2951C137.655 20.2379 137.674 20.195 137.707 20.1616C137.75 20.1187 137.802 20.0948 137.859 20.0948H139.741C139.855 20.0948 139.931 20.1377 139.974 20.2283L144.27 27.367C144.294 27.4004 144.313 27.4194 144.337 27.4194C144.36 27.4099 144.37 27.3813 144.37 27.3336L144.351 20.2951L144.356 20.2903ZM156.154 31.8161C156.045 31.8161 155.969 31.7589 155.936 31.6492L155.438 30.0088C155.414 29.9659 155.391 29.942 155.357 29.942H151.26C151.227 29.942 151.198 29.9659 151.175 30.0088L150.691 31.6492C150.658 31.7589 150.587 31.8161 150.473 31.8161H148.358C148.292 31.8161 148.239 31.797 148.206 31.7637C148.173 31.7207 148.168 31.6588 148.187 31.5777L151.787 20.2522C151.82 20.1425 151.891 20.0853 152.005 20.0853H154.622C154.731 20.0853 154.807 20.1425 154.84 20.2522L158.44 31.5777C158.44 31.5777 158.459 31.6301 158.459 31.6635C158.459 31.7637 158.397 31.8161 158.274 31.8161H156.159H156.154ZM151.772 28.0155C151.763 28.0823 151.782 28.1157 151.839 28.1157H154.769C154.836 28.1157 154.859 28.0823 154.836 28.0155L153.337 23.0418C153.328 22.9989 153.309 22.9798 153.285 22.9894C153.261 22.9894 153.247 23.0085 153.233 23.0418L151.768 28.0155H151.772ZM160.118 31.8161C160.062 31.8161 160.014 31.797 159.967 31.7637C159.934 31.7207 159.915 31.6683 159.915 31.6111V20.2856C159.915 20.2283 159.929 20.1854 159.967 20.152C160.009 20.1091 160.062 20.0853 160.118 20.0853H162.067C162.124 20.0853 162.167 20.1091 162.2 20.152C162.243 20.1854 162.267 20.2283 162.267 20.2856V29.6988C162.267 29.7561 162.295 29.7847 162.352 29.7847H167.801C167.858 29.7847 167.9 29.8085 167.934 29.8514C167.976 29.8848 168 29.9277 168 29.985V31.6111C168 31.6683 167.976 31.716 167.934 31.7637C167.9 31.797 167.858 31.8161 167.801 31.8161H160.118ZM61.0456 35.4832C61.1025 35.3926 61.1784 35.3497 61.278 35.3497H63.227C63.2839 35.3497 63.3266 35.3735 63.3598 35.4164C63.4025 35.4498 63.4262 35.4927 63.4262 35.55V46.8755C63.4262 46.9327 63.4025 46.9804 63.3598 47.0281C63.3266 47.0614 63.2839 47.0805 63.227 47.0805H61.278C61.2211 47.0805 61.1736 47.0614 61.1262 47.0281C61.093 46.9851 61.0788 46.9327 61.0788 46.8755V39.4888C61.0788 39.4459 61.0693 39.4221 61.0456 39.4221C61.0219 39.4221 61.0029 39.4412 60.9792 39.4745L59.2151 42.2547C59.1582 42.3453 59.0824 42.3882 58.9828 42.3882H58.0012C57.9016 42.3882 57.8257 42.3453 57.7688 42.2547L56.0047 39.4745C55.981 39.4412 55.962 39.4316 55.9383 39.4412C55.9146 39.4412 55.9051 39.465 55.9051 39.5079V46.8802C55.9051 46.9375 55.8814 46.9851 55.8387 47.0328C55.8055 47.0662 55.7629 47.0853 55.706 47.0853H53.7569C53.7 47.0853 53.6526 47.0662 53.6052 47.0328C53.572 46.9899 53.5578 46.9375 53.5578 46.8802V35.5547C53.5578 35.4975 53.572 35.4546 53.6052 35.4212C53.6479 35.3783 53.7 35.3544 53.7569 35.3544H55.706C55.8055 35.3544 55.8862 35.3974 55.9383 35.488L58.4374 39.3935C58.4706 39.4602 58.5038 39.4602 58.537 39.3935L61.0551 35.488L61.0456 35.4832ZM69.6052 47.2617C68.7374 47.2617 67.9739 47.0853 67.3052 46.7276C66.6508 46.37 66.1387 45.8741 65.7735 45.2351C65.4084 44.5865 65.2234 43.8426 65.2234 43.0081V39.4221C65.2234 38.5971 65.4084 37.8627 65.7735 37.2285C66.1387 36.5943 66.6508 36.0984 67.3052 35.755C67.9691 35.3974 68.7374 35.2209 69.6052 35.2209C70.473 35.2209 71.2507 35.3974 71.9051 35.755C72.5738 36.1031 73.0907 36.5943 73.4558 37.2285C73.8209 37.8675 74.0059 38.5971 74.0059 39.4221V43.0081C74.0059 43.8474 73.8209 44.5865 73.4558 45.2351C73.0907 45.8836 72.5738 46.3843 71.9051 46.7419C71.2507 47.09 70.4825 47.2617 69.6052 47.2617ZM69.6052 45.2351C70.2169 45.2351 70.7101 45.0395 71.0895 44.6485C71.4688 44.2575 71.6538 43.7377 71.6538 43.0892V39.403C71.6538 38.7545 71.4641 38.2347 71.0895 37.8437C70.7243 37.4431 70.2264 37.2428 69.6052 37.2428C68.984 37.2428 68.5003 37.4431 68.1209 37.8437C67.7557 38.2347 67.5708 38.7545 67.5708 39.403V43.0892C67.5708 43.7377 67.7557 44.2575 68.1209 44.6485C68.5003 45.0395 68.9934 45.2351 69.6052 45.2351ZM78.6579 47.0757C78.5489 47.0757 78.473 47.0185 78.4398 46.9088L75.0065 35.5833L74.9875 35.5166C74.9875 35.4069 75.0492 35.3497 75.1725 35.3497H77.2732C77.3965 35.3497 77.4724 35.4069 77.5056 35.5166L79.7202 43.69C79.7297 43.7234 79.7486 43.7425 79.7676 43.7425C79.7866 43.7425 79.8055 43.7234 79.8198 43.69L82.0011 35.5166C82.0343 35.4069 82.1102 35.3497 82.2335 35.3497H84.2821C84.3485 35.3497 84.4007 35.3735 84.4339 35.4164C84.4671 35.4594 84.4718 35.5166 84.4481 35.5833L80.9674 46.9088C80.9342 47.0185 80.863 47.0757 80.7492 47.0757H78.6484H78.6579ZM93.9229 37.1761C93.9229 37.2333 93.8992 37.281 93.8565 37.3287C93.8233 37.362 93.7806 37.3811 93.7237 37.3811H88.2608C88.2039 37.3811 88.1754 37.4097 88.1754 37.4669V40.0658C88.1754 40.1231 88.2039 40.1517 88.2608 40.1517H91.8411C91.898 40.1517 91.9407 40.1755 91.9739 40.2184C92.0165 40.2518 92.0403 40.2947 92.0403 40.352V41.9781C92.0403 42.0353 92.0165 42.083 91.9739 42.1307C91.9407 42.164 91.898 42.1831 91.8411 42.1831H88.2608C88.2039 42.1831 88.1754 42.2117 88.1754 42.269V44.9823C88.1754 45.0395 88.2039 45.0681 88.2608 45.0681H93.7237C93.7806 45.0681 93.8233 45.092 93.8565 45.1349C93.8992 45.1683 93.9229 45.2112 93.9229 45.2684V46.8945C93.9229 46.9518 93.8992 46.9994 93.8565 47.0471C93.8233 47.0805 93.7806 47.0996 93.7237 47.0996H86.0272C85.9703 47.0996 85.9229 47.0805 85.8755 47.0471C85.8423 47.0042 85.8233 46.9518 85.8233 46.8945V35.569C85.8233 35.5118 85.8423 35.4689 85.8755 35.4355C85.9181 35.3926 85.9703 35.3688 86.0272 35.3688H93.7237C93.7806 35.3688 93.8233 35.3926 93.8565 35.4355C93.8992 35.4689 93.9229 35.5118 93.9229 35.569V37.1951V37.1761ZM101.951 47.0757C101.842 47.0757 101.762 47.0233 101.719 46.9231L99.6372 42.2833C99.6135 42.2403 99.5803 42.2165 99.5376 42.2165H97.9869C97.93 42.2165 97.9015 42.2451 97.9015 42.3023V46.8755C97.9015 46.9327 97.8778 46.9804 97.8352 47.0281C97.802 47.0614 97.7593 47.0805 97.7024 47.0805H95.7534C95.6964 47.0805 95.649 47.0614 95.6016 47.0281C95.5684 46.9851 95.5494 46.9327 95.5494 46.8755V35.55C95.5494 35.4927 95.5684 35.4498 95.6016 35.4164C95.6443 35.3735 95.6964 35.3497 95.7534 35.3497H100.519C101.231 35.3497 101.852 35.4927 102.383 35.7836C102.928 36.0745 103.346 36.4894 103.63 37.0235C103.929 37.5576 104.081 38.1775 104.081 38.8832C104.081 39.6414 103.891 40.2947 103.512 40.8431C103.132 41.3772 102.606 41.7587 101.928 41.9828C101.871 42.0067 101.856 42.0448 101.875 42.1021L104.142 46.8421C104.166 46.885 104.175 46.9184 104.175 46.9422C104.175 47.0328 104.114 47.0757 103.99 47.0757H101.942H101.951ZM97.9869 37.3763C97.93 37.3763 97.9015 37.405 97.9015 37.4622V40.3281C97.9015 40.3853 97.93 40.414 97.9869 40.414H100.168C100.633 40.414 101.012 40.2757 101.302 39.9943C101.6 39.713 101.752 39.3506 101.752 38.9071C101.752 38.4636 101.6 38.0964 101.302 37.8198C101.012 37.5289 100.633 37.3859 100.168 37.3859H97.9869V37.3763ZM109.785 47.2093C108.899 47.2093 108.121 47.071 107.452 46.7896C106.788 46.4987 106.271 46.0934 105.902 45.5689C105.546 45.0348 105.37 44.4148 105.37 43.7091V43.3419C105.37 43.2847 105.385 43.2418 105.418 43.2084C105.461 43.1655 105.513 43.1416 105.57 43.1416H107.471C107.528 43.1416 107.571 43.1655 107.604 43.2084C107.647 43.2418 107.67 43.2847 107.67 43.3419V43.5946C107.67 44.0429 107.874 44.4196 108.287 44.7343C108.699 45.0348 109.254 45.1874 109.951 45.1874C110.539 45.1874 110.98 45.0634 111.27 44.8202C111.559 44.5627 111.701 44.2527 111.701 43.8808C111.701 43.6137 111.611 43.3896 111.436 43.2084C111.255 43.0176 111.014 42.8555 110.701 42.722C110.402 42.5789 109.918 42.3834 109.249 42.1354C108.505 41.8779 107.874 41.6157 107.353 41.3486C106.84 41.0816 106.409 40.7192 106.053 40.2614C105.707 39.794 105.536 39.217 105.536 38.5351C105.536 37.8532 105.707 37.281 106.053 36.7755C106.399 36.2748 106.874 35.8885 107.485 35.6215C108.097 35.3544 108.804 35.2209 109.6 35.2209C110.445 35.2209 111.194 35.3735 111.848 35.6739C112.517 35.9744 113.029 36.3988 113.399 36.9472C113.778 37.4813 113.963 38.1107 113.963 38.8212V39.074C113.963 39.1312 113.939 39.1789 113.897 39.2266C113.864 39.26 113.821 39.279 113.764 39.279H111.848C111.791 39.279 111.744 39.26 111.696 39.2266C111.663 39.1837 111.649 39.1312 111.649 39.074V38.9405C111.649 38.4731 111.455 38.0726 111.066 37.7531C110.686 37.4193 110.165 37.2524 109.501 37.2524C108.979 37.2524 108.567 37.362 108.268 37.5862C107.979 37.8103 107.836 38.1155 107.836 38.5065C107.836 38.7879 107.922 39.0215 108.088 39.2123C108.268 39.403 108.519 39.5747 108.856 39.732C109.202 39.8751 109.728 40.0802 110.44 40.3329C111.227 40.6238 111.843 40.8813 112.289 41.1054C112.744 41.3295 113.148 41.6633 113.503 42.1116C113.868 42.5455 114.053 43.1178 114.053 43.8188C114.053 44.8679 113.669 45.7024 112.906 46.3128C112.137 46.9136 111.099 47.2188 109.79 47.2188L109.785 47.2093ZM119.232 47.0757C119.175 47.0757 119.127 47.0567 119.08 47.0233C119.047 46.9804 119.033 46.9279 119.033 46.8707V35.5452C119.033 35.488 119.047 35.445 119.08 35.4117C119.123 35.3687 119.175 35.3449 119.232 35.3449H121.181C121.238 35.3449 121.28 35.3687 121.313 35.4117C121.356 35.445 121.38 35.488 121.38 35.5452V46.8707C121.38 46.9279 121.356 46.9756 121.313 47.0233C121.28 47.0567 121.238 47.0757 121.181 47.0757H119.232ZM130.105 35.55C130.105 35.4927 130.124 35.4498 130.158 35.4164C130.2 35.3735 130.252 35.3497 130.309 35.3497H132.258C132.315 35.3497 132.358 35.3735 132.391 35.4164C132.434 35.4498 132.458 35.4927 132.458 35.55V46.8755C132.458 46.9327 132.434 46.9804 132.391 47.0281C132.358 47.0614 132.315 47.0805 132.258 47.0805H130.376C130.267 47.0805 130.186 47.0376 130.143 46.947L125.828 39.775C125.804 39.7416 125.785 39.732 125.762 39.7416C125.738 39.7416 125.728 39.7654 125.728 39.8083L125.762 46.8802C125.762 46.9375 125.738 46.9851 125.695 47.0328C125.662 47.0662 125.619 47.0853 125.562 47.0853H123.613C123.557 47.0853 123.509 47.0662 123.462 47.0328C123.428 46.9899 123.414 46.9375 123.414 46.8802V35.5547C123.414 35.4975 123.433 35.4546 123.462 35.4212C123.504 35.3783 123.557 35.3544 123.613 35.3544H125.496C125.605 35.3544 125.686 35.3974 125.728 35.488L130.025 42.6266C130.049 42.66 130.067 42.6791 130.091 42.6791C130.115 42.6695 130.124 42.6409 130.124 42.5932L130.105 35.5547V35.55ZM138.584 47.2093C137.717 47.2093 136.958 47.0424 136.303 46.7086C135.649 46.3604 135.142 45.8836 134.786 45.2684C134.43 44.6533 134.255 43.9428 134.255 43.1416V39.2695C134.255 38.4636 134.435 37.7578 134.786 37.1427C135.142 36.5275 135.649 36.0554 136.303 35.7169C136.958 35.3831 137.721 35.2162 138.584 35.2162C139.447 35.2162 140.192 35.3783 140.832 35.7026C141.487 36.0173 141.994 36.4655 142.35 37.0616C142.715 37.6434 142.9 38.3158 142.9 39.0883C142.9 39.1884 142.833 39.2504 142.701 39.2743L140.752 39.3935H140.718C140.609 39.3935 140.552 39.3315 140.552 39.2075C140.552 38.6162 140.367 38.1393 140.002 37.7817C139.647 37.424 139.177 37.2476 138.584 37.2476C137.992 37.2476 137.503 37.424 137.133 37.7817C136.778 38.1393 136.602 38.6114 136.602 39.2075V43.2465C136.602 43.8283 136.778 44.2956 137.133 44.6533C137.498 45.0109 137.982 45.1874 138.584 45.1874C139.187 45.1874 139.647 45.0109 140.002 44.6533C140.367 44.2956 140.552 43.8283 140.552 43.2465C140.552 43.1226 140.619 43.0606 140.752 43.0606L142.701 43.1464C142.757 43.1464 142.8 43.1655 142.833 43.1988C142.876 43.2322 142.9 43.2704 142.9 43.3181C142.9 44.0906 142.715 44.7677 142.35 45.3638C141.994 45.9551 141.487 46.4129 140.832 46.7372C140.187 47.0614 139.438 47.2236 138.584 47.2236V47.2093ZM145.721 47.1425C145.342 47.1425 145.029 47.0185 144.773 46.7753C144.526 46.5178 144.408 46.1983 144.408 45.8216C144.408 45.4449 144.531 45.1111 144.773 44.8679C145.015 44.6199 145.332 44.5007 145.721 44.5007C146.11 44.5007 146.428 44.6247 146.67 44.8679C146.916 45.1158 147.035 45.4306 147.035 45.8216C147.035 46.2126 146.907 46.5178 146.651 46.7753C146.404 47.0233 146.096 47.1425 145.717 47.1425H145.721Z" fill="white"/>
</g>
<g id="Group 63540">
<path id="Vector_2" d="M43.7565 16.7687C41.926 13.8693 39.3827 11.5034 36.3781 9.8953V2.24525C36.3781 1.9078 36.1999 1.59675 35.9092 1.42896C35.7817 1.35544 35.641 1.31585 35.4985 1.30643C32.8183 0.441131 30.0219 0 27.1785 0C12.1929 0 0 12.2555 0 27.3181C0 42.3807 12.1929 54.6343 27.1785 54.6343V52.7491C13.2264 52.7491 1.87555 41.3401 1.87555 27.3181C1.87555 13.2962 13.2264 1.88518 27.1785 1.88518C29.2754 1.88518 31.346 2.14533 33.3547 2.65244C32.8952 3.09735 32.4413 3.64405 32.0437 4.30952C30.4514 3.97207 28.8178 3.80052 27.1785 3.80052C14.2767 3.80052 3.77923 14.3519 3.77923 27.32C3.77923 40.2881 14.2767 50.8376 27.1785 50.8376V48.9524C15.3101 48.9524 5.65477 39.2475 5.65477 27.32C5.65477 15.3925 15.3101 5.68381 27.1785 5.68381C28.5477 5.68381 29.9131 5.81577 31.2503 6.07216C31.0403 6.74328 30.9334 7.38047 30.8921 7.95168C29.673 7.71603 28.4295 7.59915 27.1785 7.59915C22.0771 7.59915 17.2438 9.55785 13.5696 13.1133C9.90663 16.6593 7.77789 21.4213 7.57533 26.5226C7.56408 26.8016 7.56033 27.0636 7.56033 27.3181C7.56033 38.1918 16.3604 47.0371 27.1785 47.0371C37.9967 47.0371 46.7967 38.1918 46.7967 27.3181C46.7967 23.5685 45.7446 19.9207 43.7565 16.7687ZM34.5025 27.501V31.7558C33.6923 31.7407 32.3982 31.5221 31.3591 30.4569C30.3988 29.471 30.1663 28.2795 30.1306 27.501H34.5025ZM27.1804 9.48433C28.6771 9.48433 30.1625 9.67096 31.5973 10.0423C31.8899 10.1177 32.2012 10.0461 32.4319 9.85194C32.6626 9.65588 32.7864 9.36179 32.7639 9.05828C32.7001 8.21937 32.7714 6.94122 33.4616 5.61406C33.7655 5.03154 34.1274 4.55459 34.5007 4.16624V25.6177H29.553C28.4595 24.7335 27.0604 23.2819 26.1489 21.1423C25.6312 19.9226 25.3274 18.6237 25.2524 17.2795C25.2298 16.8723 24.9485 16.5255 24.5546 16.4218C24.1627 16.3181 23.7482 16.4783 23.5268 16.8214C21.7957 19.5154 20.888 22.5562 20.8092 25.6158H9.51464C10.3661 16.4934 17.9452 9.48433 27.1767 9.48433H27.1804ZM26.8259 25.6158H22.6904C22.7429 23.7834 23.1292 21.9604 23.8513 20.2336C24.007 20.7954 24.2002 21.3459 24.429 21.8831C25.0854 23.4252 25.9576 24.6562 26.8278 25.6158H26.8259ZM27.1804 45.1519C17.4576 45.1519 9.53715 37.2492 9.43962 27.501H20.8692C21.0811 29.9649 21.8332 32.4005 23.1311 34.6307C25.8488 39.3022 30.5208 42.3222 35.7479 42.9311C33.2065 44.345 30.2863 45.1519 27.1804 45.1519ZM38.3718 41.1478C32.7827 41.3834 27.5762 38.5387 24.7497 33.6806C23.6244 31.7445 22.9604 29.6388 22.7541 27.501H28.2532C28.2907 28.6151 28.6096 30.3306 30.02 31.7766C32.2744 34.0878 35.2734 33.624 35.6072 33.5637C36.0536 33.4826 36.3781 33.0924 36.3781 32.6362V12.0614C41.6859 15.285 44.9231 20.999 44.9231 27.3181C44.9231 32.8907 42.3667 37.8751 38.3718 41.1478Z" fill="white"/>
<path id="Vector_3" d="M32.4359 18.1751L29.9564 15.2041C29.1387 15.8922 29.0336 17.1157 29.7182 17.9376C30.4028 18.7577 31.6181 18.8632 32.4359 18.1751Z" fill="white"/>
</g>
</g>
</svg>
