<svg width="190" height="28" viewBox="0 0 190 28" fill="none" xmlns="http://www.w3.org/2000/svg">
<g id="Group 63554">
<path id="Vector" d="M15 22.5032L24.27 28L21.81 17.64L30 10.6695L19.215 9.77053L15 0L10.785 9.77053L0 10.6695L8.19 17.64L5.73 28L15 22.5032Z" fill="#FF2760"/>
<path id="Vector_2" d="M55 22.5032L64.27 28L61.81 17.64L70 10.6695L59.215 9.77053L55 0L50.785 9.77053L40 10.6695L48.19 17.64L45.73 28L55 22.5032Z" fill="#FF2760"/>
<path id="Vector_3" d="M95 22.5032L104.27 28L101.81 17.64L110 10.6695L99.215 9.77053L95 0L90.785 9.77053L80 10.6695L88.19 17.64L85.73 28L95 22.5032Z" fill="#FF2760"/>
<path id="Vector_4" d="M135 22.5032L144.27 28L141.81 17.64L150 10.6695L139.215 9.77053L135 0L130.785 9.77053L120 10.6695L128.19 17.64L125.73 28L135 22.5032Z" fill="#FF2760"/>
<path id="Vector_5" d="M175 22.5032L184.27 28L181.81 17.64L190 10.6695L179.215 9.77053L175 0L170.785 9.77053L160 10.6695L168.19 17.64L165.73 28L175 22.5032Z" fill="#FF2760"/>
</g>
</svg>
