<svg width="123" height="40" viewBox="0 0 123 40" fill="none" xmlns="http://www.w3.org/2000/svg">
<g id="Group 63542">
<g id="Group 63476">
<path id="Vector" d="M42.2048 12.216C41.5694 12.216 41.0139 12.0938 40.5348 11.8494C40.0557 11.5945 39.6842 11.2454 39.4238 10.795C39.1634 10.3446 39.0349 9.82442 39.0349 9.23788V6.40293C39.0349 5.81289 39.1668 5.29618 39.4238 4.8458C39.6842 4.39542 40.0557 4.04978 40.5348 3.80189C41.0139 3.5575 41.5729 3.4353 42.2048 3.4353C42.8367 3.4353 43.3783 3.55401 43.8505 3.79142C44.3296 4.02184 44.7011 4.35003 44.9615 4.78644C45.2288 5.21239 45.3642 5.70466 45.3642 6.27026C45.3642 6.34357 45.3156 6.38896 45.2184 6.40642L43.7915 6.4937H43.7671C43.6873 6.4937 43.6456 6.44831 43.6456 6.35754C43.6456 5.92461 43.5102 5.57548 43.2429 5.31363C42.9825 5.05178 42.6353 4.92261 42.2048 4.92261C41.7743 4.92261 41.4132 5.05178 41.1424 5.31363C40.882 5.57548 40.7535 5.92112 40.7535 6.35754V9.31469C40.7535 9.74063 40.8854 10.0828 41.1424 10.3446C41.4097 10.6065 41.7638 10.7357 42.2048 10.7357C42.6457 10.7357 42.9825 10.6065 43.2429 10.3446C43.5102 10.0828 43.6456 9.74063 43.6456 9.31469C43.6456 9.22391 43.6942 9.17853 43.7915 9.17853L45.2184 9.24137C45.2601 9.24137 45.2913 9.25534 45.3156 9.27977C45.3469 9.30421 45.3642 9.33214 45.3642 9.36706C45.3642 9.93265 45.2288 10.4284 44.9615 10.8648C44.7011 11.2978 44.3296 11.6329 43.8505 11.8703C43.3783 12.1077 42.8297 12.2264 42.2048 12.2264V12.216ZM51.8637 12.1182C51.7838 12.1182 51.7283 12.0763 51.704 11.996L51.3394 10.795C51.3221 10.7636 51.3012 10.7461 51.2769 10.7461H48.2772C48.2529 10.7461 48.232 10.7636 48.2147 10.795L47.8605 11.996C47.8362 12.0763 47.7842 12.1182 47.7008 12.1182H46.1524C46.1038 12.1182 46.0656 12.1043 46.0413 12.0798C46.017 12.0484 46.0135 12.003 46.0274 11.9437L48.6626 3.65176C48.6869 3.57146 48.7389 3.52957 48.8223 3.52957H50.7388C50.8186 3.52957 50.8742 3.57146 50.8985 3.65176L53.5337 11.9437C53.5337 11.9437 53.5441 11.9821 53.5441 12.0065C53.5441 12.0798 53.499 12.1182 53.4087 12.1182H51.8602H51.8637ZM48.6556 9.33564C48.6487 9.38451 48.6626 9.40895 48.7042 9.40895H50.8499C50.8985 9.40895 50.9158 9.38451 50.8985 9.33564L49.8014 5.69419C49.7944 5.66277 49.7805 5.6488 49.7632 5.65578C49.7458 5.65578 49.7354 5.66975 49.725 5.69419L48.6521 9.33564H48.6556ZM54.7662 12.1182C54.7245 12.1182 54.6898 12.1043 54.6551 12.0798C54.6308 12.0484 54.6204 12.01 54.6204 11.9681V3.6797C54.6204 3.6378 54.6343 3.60638 54.6551 3.58194C54.6864 3.55052 54.7245 3.53306 54.7662 3.53306H56.1932C56.2348 3.53306 56.2661 3.55052 56.2904 3.58194C56.3216 3.60638 56.339 3.6378 56.339 3.6797V10.5716C56.339 10.6135 56.3598 10.6344 56.4015 10.6344H60.3907C60.4324 10.6344 60.4636 10.6519 60.4879 10.6833C60.5192 10.7077 60.5366 10.7391 60.5366 10.781V11.9716C60.5366 12.0135 60.5192 12.0484 60.4879 12.0833C60.4636 12.1077 60.4324 12.1217 60.3907 12.1217H54.7662V12.1182ZM64.505 12.216C63.88 12.216 63.3245 12.0903 62.8454 11.8354C62.3663 11.5806 61.9913 11.2314 61.724 10.781C61.4636 10.3237 61.3351 9.79649 61.3351 9.19947V6.4518C61.3351 5.85479 61.467 5.3276 61.724 4.87024C61.9913 4.41287 62.3663 4.06025 62.8454 3.81586C63.3245 3.56099 63.88 3.4353 64.505 3.4353C65.1299 3.4353 65.6681 3.5575 66.1402 3.80189C66.6194 4.04628 66.9909 4.38145 67.2513 4.80739C67.5186 5.22286 67.654 5.6907 67.654 6.20741V6.29469C67.654 6.33659 67.6366 6.3715 67.6054 6.40642C67.5811 6.43086 67.5498 6.44482 67.5082 6.44482H66.0812C66.0396 6.44482 66.0048 6.43086 65.9701 6.40642C65.9458 6.375 65.9354 6.33659 65.9354 6.29469V6.25629C65.9354 5.87923 65.8035 5.56501 65.5465 5.31014C65.2862 5.04829 64.9424 4.91911 64.5084 4.91911C64.0744 4.91911 63.7168 5.05877 63.446 5.33458C63.1856 5.60341 63.0572 5.95953 63.0572 6.40293V9.24835C63.0572 9.68826 63.1995 10.0514 63.4842 10.3272C63.7689 10.596 64.13 10.7322 64.5709 10.7322C65.0119 10.7322 65.3313 10.6204 65.5847 10.4005C65.8382 10.1701 65.9632 9.85584 65.9632 9.45434V8.90271C65.9632 8.86082 65.9423 8.83987 65.9007 8.83987H64.5362C64.4946 8.83987 64.4598 8.8259 64.4251 8.80146C64.4008 8.77004 64.3904 8.73164 64.3904 8.68974V7.56204C64.3904 7.52015 64.4043 7.48873 64.4251 7.46429C64.4564 7.43287 64.4946 7.41541 64.5362 7.41541H67.5117C67.5533 7.41541 67.5846 7.43287 67.6089 7.46429C67.6401 7.48873 67.6575 7.52015 67.6575 7.56204V9.18202C67.6575 9.80347 67.529 10.3446 67.2686 10.802C67.0082 11.2594 66.6367 11.612 66.1576 11.8564C65.6854 12.0938 65.1369 12.2125 64.5119 12.2125L64.505 12.216ZM74.209 12.1182C74.1292 12.1182 74.0736 12.0763 74.0493 11.996L73.6847 10.795C73.6674 10.7636 73.6466 10.7461 73.6222 10.7461H70.6225C70.5982 10.7461 70.5774 10.7636 70.56 10.795L70.2059 11.996C70.1816 12.0763 70.1295 12.1182 70.0462 12.1182H68.4977C68.4491 12.1182 68.4109 12.1043 68.3866 12.0798C68.3623 12.0484 68.3588 12.003 68.3727 11.9437L71.0079 3.65176C71.0322 3.57146 71.0843 3.52957 71.1676 3.52957H73.0841C73.164 3.52957 73.2195 3.57146 73.2438 3.65176L75.879 11.9437C75.879 11.9437 75.8929 11.9821 75.8929 12.0065C75.8929 12.0798 75.8478 12.1182 75.7575 12.1182H74.209ZM71.0009 9.33564C70.994 9.38451 71.0079 9.40895 71.0496 9.40895H73.1952C73.2438 9.40895 73.2612 9.38451 73.2438 9.33564L72.1467 5.69419C72.1397 5.66277 72.1259 5.6488 72.112 5.65578C72.0946 5.65578 72.0842 5.66975 72.0738 5.69419L71.0009 9.33564ZM81.6493 12.1182C81.5695 12.1182 81.5105 12.0798 81.4792 12.0065L79.955 8.60944C79.9377 8.57802 79.9134 8.56056 79.8821 8.56056H78.7468C78.7052 8.56056 78.6843 8.58151 78.6843 8.62341V11.9716C78.6843 12.0135 78.667 12.0484 78.6357 12.0833C78.6114 12.1077 78.5802 12.1217 78.5385 12.1217H77.1115C77.0699 12.1217 77.0352 12.1077 77.0004 12.0833C76.9761 12.0519 76.9657 12.0135 76.9657 11.9716V3.6797C76.9657 3.6378 76.9761 3.60638 77.0004 3.58194C77.0317 3.55052 77.0699 3.53306 77.1115 3.53306H80.6008C81.1216 3.53306 81.5764 3.6378 81.9653 3.85077C82.3646 4.06374 82.6701 4.36749 82.8819 4.75851C83.1006 5.14954 83.2117 5.60341 83.2117 6.12013C83.2117 6.67525 83.0728 7.15356 82.7986 7.55506C82.5208 7.94609 82.1354 8.2254 81.6389 8.38949C81.5973 8.40694 81.5869 8.43488 81.6007 8.47677L83.2603 11.9471C83.2777 11.9786 83.2846 12.003 83.2846 12.0205C83.2846 12.0868 83.2395 12.1182 83.1492 12.1182H81.6493ZM78.7468 5.01687C78.7052 5.01687 78.6843 5.03782 78.6843 5.07972V7.178C78.6843 7.21989 78.7052 7.24084 78.7468 7.24084H80.3439C80.6841 7.24084 80.9619 7.13959 81.1737 6.93361C81.3924 6.72762 81.5035 6.46228 81.5035 6.13759C81.5035 5.81289 81.3924 5.54406 81.1737 5.34156C80.9619 5.12859 80.6876 5.02385 80.3439 5.02385H78.7468V5.01687ZM86.4059 12.1077C86.3642 12.1077 86.3295 12.0938 86.2948 12.0693C86.2705 12.0379 86.2601 11.9995 86.2601 11.9576V8.85383C86.2601 8.82241 86.2566 8.79797 86.2462 8.78052L83.7325 3.70413C83.7151 3.67271 83.7082 3.64827 83.7082 3.63082C83.7082 3.56448 83.7533 3.53306 83.8436 3.53306H85.3817C85.465 3.53306 85.5205 3.57146 85.5518 3.64478L87.076 6.90917C87.1003 6.95805 87.1246 6.95805 87.1489 6.90917L88.6731 3.64478C88.7043 3.57146 88.7633 3.53306 88.8432 3.53306H90.4055C90.4611 3.53306 90.4993 3.55052 90.5167 3.58194C90.541 3.60638 90.541 3.64827 90.5167 3.70413L87.9787 8.78052C87.9787 8.78052 87.9648 8.82241 87.9648 8.85383V11.9576C87.9648 11.9995 87.9474 12.0344 87.9162 12.0693C87.8919 12.0938 87.8606 12.1077 87.819 12.1077H86.4024H86.4059ZM42.729 14.6948C43.2672 14.6948 43.7359 14.8065 44.1456 15.0265C44.5518 15.2464 44.8643 15.5607 45.0865 15.9726C45.3156 16.3741 45.4267 16.835 45.4267 17.3587C45.4267 17.8824 45.3087 18.3293 45.0726 18.7203C44.8434 19.1113 44.5206 19.4186 44.097 19.6385C43.6838 19.8515 43.2012 19.9562 42.6561 19.9562H40.9236C40.882 19.9562 40.8611 19.9772 40.8611 20.0191V23.1473C40.8611 23.1892 40.8438 23.2241 40.8125 23.259C40.7882 23.2835 40.757 23.2974 40.7153 23.2974H39.2884C39.2467 23.2974 39.212 23.2835 39.1773 23.259C39.153 23.2276 39.1391 23.1892 39.1391 23.1473V14.8449C39.1391 14.803 39.153 14.7716 39.1773 14.7472C39.2085 14.7158 39.2467 14.6983 39.2884 14.6983H42.729V14.6948ZM42.4721 18.5702C42.8471 18.5702 43.1457 18.4654 43.3748 18.2525C43.604 18.0325 43.7151 17.7462 43.7151 17.3936C43.7151 17.041 43.6005 16.7442 43.3748 16.5243C43.1491 16.3043 42.8471 16.1926 42.4721 16.1926H40.9236C40.882 16.1926 40.8611 16.2135 40.8611 16.2554V18.5108C40.8611 18.5527 40.882 18.5737 40.9236 18.5737H42.4721V18.5702ZM51.1658 23.2939C51.086 23.2939 51.0269 23.2555 50.9957 23.1822L49.4715 19.7852C49.4542 19.7537 49.4299 19.7363 49.3986 19.7363H48.2633C48.2216 19.7363 48.2008 19.7572 48.2008 19.7991V23.1473C48.2008 23.1892 48.1834 23.2241 48.1522 23.259C48.1279 23.2835 48.0966 23.2974 48.055 23.2974H46.628C46.5864 23.2974 46.5516 23.2835 46.5169 23.259C46.4926 23.2276 46.4822 23.1892 46.4822 23.1473V14.8554C46.4822 14.8135 46.4961 14.7821 46.5169 14.7577C46.5482 14.7262 46.5864 14.7088 46.628 14.7088H50.1173C50.6381 14.7088 51.0929 14.8135 51.4852 15.0265C51.8845 15.2395 52.19 15.5432 52.3984 15.9342C52.6171 16.3253 52.7282 16.7791 52.7282 17.2958C52.7282 17.851 52.5893 18.3293 52.315 18.7308C52.0373 19.1218 51.6519 19.4011 51.1554 19.5652C51.1137 19.5827 51.1033 19.6106 51.1207 19.6525L52.7803 23.1229C52.7976 23.1543 52.8046 23.1787 52.8046 23.1962C52.8046 23.2625 52.7594 23.2939 52.6692 23.2939H51.1693H51.1658ZM48.2633 16.1926C48.2216 16.1926 48.2008 16.2135 48.2008 16.2554V18.3537C48.2008 18.3956 48.2216 18.4166 48.2633 18.4166H49.8604C50.2006 18.4166 50.4784 18.3153 50.6902 18.1093C50.9089 17.9033 51.02 17.638 51.02 17.3133C51.02 16.9886 50.9089 16.7198 50.6902 16.5173C50.4784 16.3043 50.2041 16.1996 49.8604 16.1996H48.2633V16.1926ZM57.0126 23.4301C56.3772 23.4301 55.8182 23.3009 55.3287 23.0391C54.8495 22.7772 54.4746 22.4141 54.2072 21.9463C53.9399 21.4715 53.8045 20.9268 53.8045 20.3158V17.6904C53.8045 17.0864 53.9399 16.5487 54.2072 16.0844C54.4746 15.62 54.8495 15.2569 55.3287 15.0055C55.8182 14.7437 56.3772 14.6145 57.0126 14.6145C57.6479 14.6145 58.2173 14.7437 58.6964 15.0055C59.1825 15.2604 59.5609 15.62 59.8318 16.0844C60.0991 16.5522 60.2345 17.0864 60.2345 17.6904V20.3158C60.2345 20.9303 60.0991 21.4715 59.8318 21.9463C59.5644 22.4211 59.186 22.7877 58.6964 23.0495C58.2173 23.3044 57.6549 23.4301 57.0126 23.4301ZM57.0126 21.9463C57.4604 21.9463 57.8215 21.8031 58.0993 21.5169C58.377 21.2306 58.5159 20.85 58.5159 20.3752V17.6764C58.5159 17.2016 58.377 16.821 58.0993 16.5347C57.8319 16.2415 57.4708 16.0948 57.0126 16.0948C56.5543 16.0948 56.2036 16.2415 55.9258 16.5347C55.6585 16.821 55.5231 17.2016 55.5231 17.6764V20.3752C55.5231 20.85 55.6585 21.2306 55.9258 21.5169C56.2036 21.8031 56.5647 21.9463 57.0126 21.9463ZM67.4665 16.046C67.4665 16.0879 67.4492 16.1228 67.4179 16.1577C67.3936 16.1821 67.3624 16.1961 67.3207 16.1961H63.3315C63.2898 16.1961 63.269 16.217 63.269 16.2589V18.1617C63.269 18.2036 63.2898 18.2245 63.3315 18.2245H65.9528C65.9944 18.2245 66.0257 18.242 66.05 18.2734C66.0812 18.2979 66.0986 18.3293 66.0986 18.3712V19.5617C66.0986 19.6036 66.0812 19.6385 66.05 19.6734C66.0257 19.6979 65.9944 19.7118 65.9528 19.7118H63.3315C63.2898 19.7118 63.269 19.7328 63.269 19.7747V23.1613C63.269 23.2032 63.2516 23.2381 63.2204 23.273C63.1961 23.2974 63.1648 23.3114 63.1231 23.3114H61.6962C61.6545 23.3114 61.6198 23.2974 61.5851 23.273C61.5608 23.2416 61.5469 23.2032 61.5469 23.1613V14.8694C61.5469 14.8275 61.5608 14.7961 61.5851 14.7716C61.6163 14.7402 61.6545 14.7227 61.6962 14.7227H67.3207C67.3624 14.7227 67.3936 14.7402 67.4179 14.7716C67.4492 14.7961 67.4665 14.8275 67.4665 14.8694V16.0599V16.046ZM74.3027 16.046C74.3027 16.0879 74.2854 16.1228 74.2541 16.1577C74.2298 16.1821 74.1986 16.1961 74.1569 16.1961H70.1573C70.1156 16.1961 70.0948 16.217 70.0948 16.2589V18.1617C70.0948 18.2036 70.1156 18.2245 70.1573 18.2245H72.7786C72.8202 18.2245 72.8515 18.242 72.8758 18.2734C72.907 18.2979 72.9244 18.3293 72.9244 18.3712V19.5617C72.9244 19.6036 72.907 19.6385 72.8758 19.6734C72.8515 19.6979 72.8202 19.7118 72.7786 19.7118H70.1573C70.1156 19.7118 70.0948 19.7328 70.0948 19.7747V21.7612C70.0948 21.8031 70.1156 21.8241 70.1573 21.8241H74.1569C74.1986 21.8241 74.2298 21.8415 74.2541 21.873C74.2854 21.8974 74.3027 21.9288 74.3027 21.9707V23.1613C74.3027 23.2032 74.2854 23.2381 74.2541 23.273C74.2298 23.2974 74.1986 23.3114 74.1569 23.3114H68.522C68.4803 23.3114 68.4456 23.2974 68.4109 23.273C68.3866 23.2416 68.3762 23.2032 68.3762 23.1613V14.8694C68.3762 14.8275 68.3866 14.7961 68.4109 14.7716C68.4421 14.7402 68.4803 14.7227 68.522 14.7227H74.1569C74.1986 14.7227 74.2298 14.7402 74.2541 14.7716C74.2854 14.7961 74.3027 14.8275 74.3027 14.8694V16.0599V16.046ZM78.4239 23.3917C77.7747 23.3917 77.2053 23.2904 76.7157 23.0845C76.2297 22.8715 75.8478 22.5747 75.5804 22.1907C75.32 21.7997 75.1916 21.3458 75.1916 20.8291V20.5602C75.1916 20.5183 75.202 20.4869 75.2298 20.4625C75.261 20.4311 75.2992 20.4136 75.3409 20.4136H76.7331C76.7748 20.4136 76.806 20.4311 76.8303 20.4625C76.8616 20.4869 76.8789 20.5183 76.8789 20.5602V20.7453C76.8789 21.0735 77.0282 21.3493 77.3303 21.5797C77.6323 21.7997 78.0385 21.9114 78.5489 21.9114C78.9794 21.9114 79.3023 21.8206 79.5141 21.6425C79.7259 21.454 79.8301 21.2271 79.8301 20.9548C79.8301 20.7592 79.7641 20.5951 79.6356 20.4625C79.5072 20.3228 79.3266 20.2041 79.1009 20.1064C78.8822 20.0016 78.5281 19.8585 78.0385 19.6769C77.4934 19.4884 77.0317 19.2964 76.6498 19.1009C76.2748 18.9053 75.9589 18.64 75.6985 18.3048C75.445 17.9627 75.32 17.5402 75.32 17.041C75.32 16.5417 75.445 16.1228 75.6985 15.7527C75.9519 15.3861 76.2991 15.1033 76.747 14.9078C77.1949 14.7123 77.7122 14.6145 78.2955 14.6145C78.9135 14.6145 79.462 14.7262 79.9412 14.9462C80.4272 15.1661 80.8057 15.4769 81.0765 15.8784C81.3542 16.2694 81.4896 16.7303 81.4896 17.2505V17.4355C81.4896 17.4774 81.4723 17.5123 81.441 17.5472C81.4167 17.5717 81.3855 17.5856 81.3438 17.5856H79.9412C79.8995 17.5856 79.8648 17.5717 79.8301 17.5472C79.8058 17.5158 79.7919 17.4774 79.7919 17.4355V17.3377C79.7919 16.9956 79.6495 16.7023 79.3648 16.4684C79.0871 16.224 78.7052 16.1018 78.2191 16.1018C77.8372 16.1018 77.5351 16.1821 77.3164 16.3462C77.1046 16.5103 77.0004 16.7337 77.0004 17.02C77.0004 17.226 77.0629 17.3971 77.1844 17.5367C77.3164 17.6764 77.5004 17.8021 77.7469 17.9173C78.0004 18.022 78.3857 18.1722 78.9065 18.3572C79.4829 18.5702 79.9342 18.7587 80.2606 18.9228C80.5939 19.0869 80.889 19.3313 81.1494 19.6595C81.4167 19.9772 81.5521 20.3961 81.5521 20.9094C81.5521 21.6775 81.2709 22.2884 80.7119 22.7353C80.1495 23.1752 79.3891 23.3987 78.4309 23.3987L78.4239 23.3917ZM85.6768 23.3917C85.0275 23.3917 84.4581 23.2904 83.9686 23.0845C83.4825 22.8715 83.1041 22.5747 82.8333 22.1907C82.5729 21.7997 82.4444 21.3458 82.4444 20.8291V20.5602C82.4444 20.5183 82.4583 20.4869 82.4826 20.4625C82.5139 20.4311 82.552 20.4136 82.5937 20.4136H83.986C84.0276 20.4136 84.0589 20.4311 84.0832 20.4625C84.1144 20.4869 84.1318 20.5183 84.1318 20.5602V20.7453C84.1318 21.0735 84.2811 21.3493 84.5831 21.5797C84.8852 21.7997 85.2914 21.9114 85.8018 21.9114C86.2323 21.9114 86.5552 21.8206 86.7635 21.6425C86.9753 21.454 87.0794 21.2271 87.0794 20.9548C87.0794 20.7592 87.0135 20.5951 86.885 20.4625C86.7566 20.3228 86.576 20.2041 86.3503 20.1064C86.1316 20.0016 85.7775 19.8585 85.2879 19.6769C84.7428 19.4884 84.2811 19.2964 83.8957 19.1009C83.5207 18.9053 83.2048 18.64 82.9444 18.3048C82.6909 17.9627 82.5659 17.5402 82.5659 17.041C82.5659 16.5417 82.6909 16.1228 82.9444 15.7527C83.1978 15.3861 83.545 15.1033 83.9929 14.9078C84.4408 14.7123 84.9581 14.6145 85.5414 14.6145C86.1594 14.6145 86.7079 14.7262 87.1871 14.9462C87.6731 15.1661 88.0516 15.4769 88.3224 15.8784C88.6001 16.2694 88.7355 16.7303 88.7355 17.2505V17.4355C88.7355 17.4774 88.7182 17.5123 88.6869 17.5472C88.6626 17.5717 88.6314 17.5856 88.5897 17.5856H87.1871C87.1454 17.5856 87.1107 17.5717 87.076 17.5472C87.0517 17.5158 87.0378 17.4774 87.0378 17.4355V17.3377C87.0378 16.9956 86.8954 16.7023 86.6107 16.4684C86.333 16.224 85.9511 16.1018 85.465 16.1018C85.0831 16.1018 84.781 16.1821 84.5623 16.3462C84.3505 16.5103 84.2463 16.7337 84.2463 17.02C84.2463 17.226 84.3088 17.3971 84.4304 17.5367C84.5623 17.6764 84.7463 17.8021 84.9928 17.9173C85.2463 18.022 85.6316 18.1722 86.1524 18.3572C86.7288 18.5702 87.1801 18.7587 87.5065 18.9228C87.8398 19.0869 88.1384 19.3313 88.3988 19.6595C88.6661 19.9772 88.8015 20.3961 88.8015 20.9094C88.8015 21.6775 88.5203 22.2884 87.9613 22.7353C87.3989 23.1752 86.6385 23.3987 85.6803 23.3987L85.6768 23.3917ZM90.1486 23.2939C90.107 23.2939 90.0722 23.28 90.0375 23.2555C90.0132 23.2241 90.0028 23.1857 90.0028 23.1438V14.8519C90.0028 14.81 90.0132 14.7786 90.0375 14.7542C90.0688 14.7227 90.107 14.7053 90.1486 14.7053H91.5756C91.6172 14.7053 91.6485 14.7227 91.6728 14.7542C91.704 14.7786 91.7214 14.81 91.7214 14.8519V23.1438C91.7214 23.1857 91.704 23.2206 91.6728 23.2555C91.6485 23.28 91.6172 23.2939 91.5756 23.2939H90.1486ZM96.2453 23.4301C95.61 23.4301 95.051 23.3009 94.5614 23.0391C94.0823 22.7772 93.7073 22.4141 93.44 21.9463C93.1727 21.4715 93.0373 20.9268 93.0373 20.3158V17.6904C93.0373 17.0864 93.1727 16.5487 93.44 16.0844C93.7073 15.62 94.0823 15.2569 94.5614 15.0055C95.051 14.7437 95.61 14.6145 96.2453 14.6145C96.8807 14.6145 97.4501 14.7437 97.9292 15.0055C98.4153 15.2604 98.7937 15.62 99.0645 16.0844C99.3319 16.5522 99.4673 17.0864 99.4673 17.6904V20.3158C99.4673 20.9303 99.3319 21.4715 99.0645 21.9463C98.7972 22.4211 98.4187 22.7877 97.9292 23.0495C97.4501 23.3044 96.8876 23.4301 96.2453 23.4301ZM96.2453 21.9463C96.6932 21.9463 97.0543 21.8031 97.332 21.5169C97.6098 21.2306 97.7452 20.85 97.7452 20.3752V17.6764C97.7452 17.2016 97.6063 16.821 97.332 16.5347C97.0647 16.2415 96.7002 16.0948 96.2453 16.0948C95.7905 16.0948 95.4364 16.2415 95.1586 16.5347C94.8913 16.821 94.7559 17.2016 94.7559 17.6764V20.3752C94.7559 20.85 94.8913 21.2306 95.1586 21.5169C95.4364 21.8031 95.7975 21.9463 96.2453 21.9463ZM105.689 14.8554C105.689 14.8135 105.703 14.7821 105.724 14.7577C105.755 14.7262 105.793 14.7088 105.835 14.7088H107.262C107.303 14.7088 107.335 14.7262 107.359 14.7577C107.39 14.7821 107.408 14.8135 107.408 14.8554V23.1473C107.408 23.1892 107.39 23.2241 107.359 23.259C107.335 23.2835 107.303 23.2974 107.262 23.2974H105.883C105.804 23.2974 105.745 23.266 105.713 23.1997L102.554 17.9487C102.536 17.9243 102.523 17.9173 102.505 17.9243C102.488 17.9243 102.481 17.9417 102.481 17.9732L102.505 23.1508C102.505 23.1927 102.488 23.2276 102.457 23.2625C102.432 23.287 102.401 23.3009 102.359 23.3009H100.932C100.891 23.3009 100.856 23.287 100.821 23.2625C100.797 23.2311 100.783 23.1927 100.783 23.1508V14.8589C100.783 14.817 100.797 14.7856 100.821 14.7611C100.853 14.7297 100.891 14.7123 100.932 14.7123H102.311C102.394 14.7123 102.45 14.7437 102.481 14.81L105.626 20.0365C105.644 20.061 105.658 20.0749 105.675 20.0749C105.692 20.068 105.699 20.047 105.699 20.0121L105.685 14.8589L105.689 14.8554ZM114.327 23.2939C114.247 23.2939 114.192 23.252 114.167 23.1717L113.803 21.9707C113.785 21.9393 113.768 21.9218 113.744 21.9218H110.744C110.72 21.9218 110.699 21.9393 110.682 21.9707L110.327 23.1717C110.303 23.252 110.251 23.2939 110.168 23.2939H108.619C108.571 23.2939 108.532 23.28 108.508 23.2555C108.484 23.2241 108.48 23.1787 108.494 23.1194L111.129 14.8275C111.154 14.7472 111.206 14.7053 111.289 14.7053H113.206C113.286 14.7053 113.341 14.7472 113.365 14.8275L116.001 23.1194C116.001 23.1194 116.014 23.1578 116.014 23.1822C116.014 23.2555 115.969 23.2939 115.879 23.2939H114.331H114.327ZM111.119 20.5114C111.112 20.5602 111.126 20.5847 111.168 20.5847H113.313C113.362 20.5847 113.379 20.5602 113.362 20.5114L112.265 16.8699C112.258 16.8385 112.244 16.8245 112.227 16.8315C112.209 16.8315 112.199 16.8455 112.188 16.8699L111.116 20.5114H111.119ZM117.23 23.2939C117.188 23.2939 117.153 23.28 117.119 23.2555C117.094 23.2241 117.08 23.1857 117.08 23.1438V14.8519C117.08 14.81 117.091 14.7786 117.119 14.7542C117.15 14.7227 117.188 14.7053 117.23 14.7053H118.657C118.698 14.7053 118.73 14.7227 118.754 14.7542C118.785 14.7786 118.802 14.81 118.802 14.8519V21.7438C118.802 21.7857 118.823 21.8066 118.865 21.8066H122.854C122.896 21.8066 122.927 21.8241 122.951 21.8555C122.983 21.88 123 21.9114 123 21.9533V23.1438C123 23.1857 122.983 23.2206 122.951 23.2555C122.927 23.28 122.896 23.2939 122.854 23.2939H117.23ZM44.6942 25.9788C44.7358 25.9124 44.7914 25.881 44.8643 25.881H46.2912C46.3329 25.881 46.3642 25.8985 46.3885 25.9299C46.4197 25.9543 46.4371 25.9857 46.4371 26.0276V34.3195C46.4371 34.3614 46.4197 34.3963 46.3885 34.4313C46.3642 34.4557 46.3329 34.4697 46.2912 34.4697H44.8643C44.8226 34.4697 44.7879 34.4557 44.7532 34.4313C44.7289 34.3998 44.7185 34.3614 44.7185 34.3195V28.9115C44.7185 28.8801 44.7115 28.8626 44.6942 28.8626C44.6768 28.8626 44.6629 28.8766 44.6455 28.901L43.354 30.9364C43.3123 31.0028 43.2568 31.0342 43.1839 31.0342H42.4652C42.3923 31.0342 42.3367 31.0028 42.2951 30.9364L41.0035 28.901C40.9861 28.8766 40.9722 28.8696 40.9549 28.8766C40.9375 28.8766 40.9306 28.894 40.9306 28.9254V34.323C40.9306 34.3649 40.9132 34.3998 40.882 34.4347C40.8577 34.4592 40.8264 34.4731 40.7848 34.4731H39.3578C39.3161 34.4731 39.2814 34.4592 39.2467 34.4347C39.2224 34.4033 39.212 34.3649 39.212 34.323V26.0311C39.212 25.9892 39.2224 25.9578 39.2467 25.9334C39.2779 25.902 39.3161 25.8845 39.3578 25.8845H40.7848C40.8577 25.8845 40.9167 25.9159 40.9549 25.9823L42.7846 28.8416C42.8089 28.8905 42.8332 28.8905 42.8575 28.8416L44.7011 25.9823L44.6942 25.9788ZM50.961 34.6023C50.3256 34.6023 49.7666 34.4731 49.2771 34.2113C48.798 33.9494 48.423 33.5864 48.1557 33.1185C47.8883 32.6437 47.7529 32.0991 47.7529 31.4881V28.8626C47.7529 28.2586 47.8883 27.7209 48.1557 27.2566C48.423 26.7922 48.798 26.4291 49.2771 26.1778C49.7632 25.9159 50.3256 25.7867 50.961 25.7867C51.5963 25.7867 52.1657 25.9159 52.6449 26.1778C53.1344 26.4326 53.5128 26.7922 53.7802 27.2566C54.0475 27.7244 54.1829 28.2586 54.1829 28.8626V31.4881C54.1829 32.1025 54.0475 32.6437 53.7802 33.1185C53.5128 33.5933 53.1344 33.9599 52.6449 34.2218C52.1657 34.4766 51.6033 34.6023 50.961 34.6023ZM50.961 33.1185C51.4089 33.1185 51.7699 32.9754 52.0477 32.6891C52.3254 32.4028 52.4609 32.0222 52.4609 31.5474V28.8486C52.4609 28.3738 52.322 27.9933 52.0477 27.707C51.7804 27.4137 51.4158 27.2671 50.961 27.2671C50.5062 27.2671 50.152 27.4137 49.8743 27.707C49.6069 27.9933 49.4715 28.3738 49.4715 28.8486V31.5474C49.4715 32.0222 49.6069 32.4028 49.8743 32.6891C50.152 32.9754 50.5131 33.1185 50.961 33.1185ZM57.5889 34.4662C57.509 34.4662 57.4535 34.4243 57.4292 34.344L54.9155 26.0521L54.9016 26.0032C54.9016 25.9229 54.9468 25.881 55.037 25.881H56.5751C56.6654 25.881 56.7209 25.9229 56.7452 26.0032L58.3666 31.9873C58.3735 32.0118 58.3874 32.0257 58.4013 32.0257C58.4152 32.0257 58.4291 32.0118 58.4395 31.9873L60.0366 26.0032C60.0609 25.9229 60.1165 25.881 60.2067 25.881H61.7066C61.7552 25.881 61.7934 25.8985 61.8177 25.9299C61.842 25.9613 61.8455 26.0032 61.8281 26.0521L59.2797 34.344C59.2554 34.4243 59.2033 34.4662 59.12 34.4662H57.5819H57.5889ZM68.765 27.2182C68.765 27.2601 68.7477 27.295 68.7164 27.3299C68.6921 27.3543 68.6609 27.3683 68.6192 27.3683H64.6195C64.5779 27.3683 64.557 27.3893 64.557 27.4312V29.3339C64.557 29.3758 64.5779 29.3968 64.6195 29.3968H67.2408C67.2825 29.3968 67.3138 29.4142 67.3381 29.4456C67.3693 29.4701 67.3867 29.5015 67.3867 29.5434V30.7339C67.3867 30.7758 67.3693 30.8108 67.3381 30.8457C67.3138 30.8701 67.2825 30.8841 67.2408 30.8841H64.6195C64.5779 30.8841 64.557 30.905 64.557 30.9469V32.9335C64.557 32.9754 64.5779 32.9963 64.6195 32.9963H68.6192C68.6609 32.9963 68.6921 33.0138 68.7164 33.0452C68.7477 33.0696 68.765 33.1011 68.765 33.143V34.3335C68.765 34.3754 68.7477 34.4103 68.7164 34.4452C68.6921 34.4697 68.6609 34.4836 68.6192 34.4836H62.9843C62.9426 34.4836 62.9079 34.4697 62.8732 34.4452C62.8489 34.4138 62.835 34.3754 62.835 34.3335V26.0416C62.835 25.9997 62.8489 25.9683 62.8732 25.9439C62.9044 25.9124 62.9426 25.895 62.9843 25.895H68.6192C68.6609 25.895 68.6921 25.9124 68.7164 25.9439C68.7477 25.9683 68.765 25.9997 68.765 26.0416V27.2321V27.2182ZM74.643 34.4662C74.5631 34.4662 74.5041 34.4278 74.4729 34.3544L72.9487 30.9574C72.9313 30.926 72.907 30.9085 72.8758 30.9085H71.7405C71.6988 30.9085 71.678 30.9295 71.678 30.9714V34.3195C71.678 34.3614 71.6606 34.3963 71.6294 34.4313C71.6051 34.4557 71.5738 34.4697 71.5322 34.4697H70.1052C70.0635 34.4697 70.0288 34.4557 69.9941 34.4313C69.9698 34.3998 69.9559 34.3614 69.9559 34.3195V26.0276C69.9559 25.9857 69.9698 25.9543 69.9941 25.9299C70.0253 25.8985 70.0635 25.881 70.1052 25.881H73.5945C74.1153 25.881 74.5701 25.9857 74.9589 26.1987C75.3582 26.4117 75.6637 26.7154 75.8721 27.1065C76.0908 27.4975 76.2019 27.9514 76.2019 28.4681C76.2019 29.0232 76.063 29.5015 75.7853 29.903C75.5075 30.294 75.1221 30.5733 74.6256 30.7374C74.584 30.7549 74.5736 30.7828 74.5874 30.8247L76.247 34.2951C76.2644 34.3265 76.2713 34.351 76.2713 34.3684C76.2713 34.4347 76.2262 34.4662 76.1359 34.4662H74.6361H74.643ZM71.7405 27.3648C71.6988 27.3648 71.678 27.3858 71.678 27.4277V29.5259C71.678 29.5678 71.6988 29.5888 71.7405 29.5888H73.3376C73.6778 29.5888 73.9556 29.4875 74.1673 29.2816C74.3861 29.0756 74.4972 28.8102 74.4972 28.4855C74.4972 28.1608 74.3861 27.892 74.1673 27.6895C73.9556 27.4765 73.6778 27.3718 73.3376 27.3718H71.7405V27.3648ZM80.3786 34.5639C79.7294 34.5639 79.16 34.4627 78.6704 34.2567C78.1844 34.0437 77.8059 33.747 77.5351 33.3629C77.2747 32.9719 77.1463 32.518 77.1463 32.0013V31.7325C77.1463 31.6906 77.1567 31.6591 77.181 31.6347C77.2122 31.6033 77.2504 31.5858 77.2921 31.5858H78.6843C78.726 31.5858 78.7572 31.6033 78.7815 31.6347C78.8128 31.6591 78.8301 31.6906 78.8301 31.7325V31.9175C78.8301 32.2457 78.9794 32.5215 79.2815 32.7519C79.5835 32.9719 79.9898 33.0836 80.5001 33.0836C80.9307 33.0836 81.2535 32.9928 81.4653 32.8148C81.6771 32.6262 81.7813 32.3993 81.7813 32.127C81.7813 31.9315 81.7153 31.7674 81.5868 31.6347C81.4549 31.4951 81.2778 31.3763 81.0487 31.2786C80.83 31.1738 80.4758 31.0307 79.9863 30.8492C79.4412 30.6606 78.9794 30.4686 78.5975 30.2731C78.2226 30.0776 77.9066 29.8122 77.6462 29.4771C77.3928 29.1349 77.2678 28.7125 77.2678 28.2132C77.2678 27.714 77.3928 27.295 77.6462 26.9249C77.8997 26.5583 78.2469 26.2755 78.6947 26.08C79.1426 25.8845 79.6599 25.7867 80.2432 25.7867C80.8612 25.7867 81.4098 25.8985 81.8889 26.1184C82.3785 26.3384 82.7534 26.6491 83.0242 27.0506C83.302 27.4416 83.4374 27.9025 83.4374 28.4227V28.6077C83.4374 28.6496 83.42 28.6845 83.3888 28.7194C83.3645 28.7439 83.3332 28.7579 83.2916 28.7579H81.8889C81.8472 28.7579 81.8125 28.7439 81.7778 28.7194C81.7535 28.688 81.7431 28.6496 81.7431 28.6077V28.51C81.7431 28.1678 81.6007 27.8746 81.316 27.6406C81.0383 27.3962 80.6564 27.274 80.1703 27.274C79.7884 27.274 79.4863 27.3543 79.2676 27.5184C79.0558 27.6825 78.9517 27.906 78.9517 28.1923C78.9517 28.3983 79.0142 28.5693 79.1357 28.709C79.2676 28.8486 79.4516 28.9743 79.6981 29.0895C79.9516 29.1943 80.337 29.3444 80.8577 29.5294C81.4341 29.7424 81.8854 29.9309 82.2118 30.095C82.5451 30.2591 82.8402 30.5035 83.1006 30.8317C83.3679 31.1494 83.5034 31.5684 83.5034 32.0816C83.5034 32.8497 83.2221 33.4607 82.6631 33.9076C82.1007 34.3475 81.3403 34.5709 80.3821 34.5709L80.3786 34.5639ZM87.2947 34.4662C87.253 34.4662 87.2183 34.4522 87.1836 34.4278C87.1593 34.3963 87.1489 34.3579 87.1489 34.316V26.0241C87.1489 25.9823 87.1593 25.9508 87.1836 25.9264C87.2148 25.895 87.253 25.8775 87.2947 25.8775H88.7217C88.7633 25.8775 88.7946 25.895 88.8189 25.9264C88.8501 25.9508 88.8675 25.9823 88.8675 26.0241V34.316C88.8675 34.3579 88.8501 34.3928 88.8189 34.4278C88.7946 34.4522 88.7633 34.4662 88.7217 34.4662H87.2947ZM95.2558 26.0276C95.2558 25.9857 95.2697 25.9543 95.294 25.9299C95.3253 25.8985 95.3635 25.881 95.4051 25.881H96.8321C96.8737 25.881 96.905 25.8985 96.9293 25.9299C96.9605 25.9543 96.9779 25.9857 96.9779 26.0276V34.3195C96.9779 34.3614 96.9605 34.3963 96.9293 34.4313C96.905 34.4557 96.8737 34.4697 96.8321 34.4697H95.4537C95.3739 34.4697 95.3148 34.4382 95.2836 34.3719L92.1241 29.121C92.1068 29.0965 92.0929 29.0895 92.0755 29.0965C92.0582 29.0965 92.0512 29.114 92.0512 29.1454L92.0755 34.323C92.0755 34.3649 92.0582 34.3998 92.0269 34.4347C92.0026 34.4592 91.9714 34.4731 91.9297 34.4731H90.5028C90.4611 34.4731 90.4264 34.4592 90.3917 34.4347C90.3674 34.4033 90.3569 34.3649 90.3569 34.323V26.0311C90.3569 25.9892 90.3708 25.9578 90.3917 25.9334C90.4229 25.902 90.4611 25.8845 90.5028 25.8845H91.8811C91.961 25.8845 92.02 25.9159 92.0512 25.9823L95.1968 31.2088C95.2142 31.2332 95.2281 31.2472 95.2454 31.2472C95.2628 31.2402 95.2697 31.2192 95.2697 31.1843L95.2558 26.0311V26.0276ZM101.464 34.5639C100.828 34.5639 100.273 34.4417 99.7936 34.1973C99.3145 33.9425 98.943 33.5933 98.6826 33.143C98.4222 32.6926 98.2938 32.1724 98.2938 31.5858V28.7509C98.2938 28.1608 98.4257 27.6441 98.6826 27.1937C98.943 26.7434 99.3145 26.3977 99.7936 26.1498C100.273 25.9054 100.832 25.7832 101.464 25.7832C102.096 25.7832 102.641 25.902 103.109 26.1394C103.588 26.3698 103.96 26.698 104.22 27.1344C104.488 27.5603 104.623 28.0526 104.623 28.6182C104.623 28.6915 104.574 28.7369 104.477 28.7544L103.05 28.8416H103.026C102.946 28.8416 102.904 28.7963 102.904 28.7055C102.904 28.2726 102.769 27.9234 102.502 27.6616C102.241 27.3997 101.898 27.2706 101.464 27.2706C101.03 27.2706 100.672 27.3997 100.401 27.6616C100.141 27.9234 100.012 28.2691 100.012 28.7055V31.6626C100.012 32.0886 100.141 32.4307 100.401 32.6926C100.669 32.9544 101.023 33.0836 101.464 33.0836C101.905 33.0836 102.241 32.9544 102.502 32.6926C102.769 32.4307 102.904 32.0886 102.904 31.6626C102.904 31.5719 102.953 31.5265 103.05 31.5265L104.477 31.5893C104.519 31.5893 104.55 31.6033 104.574 31.6277C104.606 31.6522 104.623 31.6801 104.623 31.715C104.623 32.2806 104.488 32.7764 104.22 33.2128C103.96 33.6457 103.588 33.9809 103.109 34.2183C102.637 34.4557 102.089 34.5744 101.464 34.5744V34.5639ZM106.689 34.515C106.411 34.515 106.182 34.4243 105.994 34.2462C105.814 34.0577 105.727 33.8238 105.727 33.5479C105.727 33.2721 105.817 33.0277 105.994 32.8497C106.172 32.6681 106.404 32.5809 106.689 32.5809C106.974 32.5809 107.206 32.6716 107.383 32.8497C107.564 33.0312 107.651 33.2617 107.651 33.5479C107.651 33.8342 107.557 34.0577 107.369 34.2462C107.189 34.4278 106.963 34.515 106.685 34.515H106.689Z" fill="#222831"/>
</g>
<g id="Group 63540">
<path id="Vector_2" d="M32.036 12.2768C30.6958 10.154 28.8338 8.42186 26.634 7.24453V1.6436C26.634 1.39654 26.5035 1.1688 26.2907 1.04596C26.1973 0.992134 26.0943 0.963149 25.99 0.956248C24.0277 0.322727 21.9803 -0.000244141 19.8986 -0.000244141C8.92696 -0.000244141 0 8.97256 0 20.0005C0 31.0285 8.92696 39.9999 19.8986 39.9999V38.6197C9.68358 38.6197 1.37317 30.2666 1.37317 20.0005C1.37317 9.73445 9.68358 1.37998 19.8986 1.37998C21.4338 1.37998 22.9498 1.57045 24.4204 1.94172C24.084 2.26746 23.7517 2.66772 23.4606 3.15494C22.2948 2.90788 21.0987 2.78228 19.8986 2.78228C10.4526 2.78228 2.76693 10.5074 2.76693 20.0019C2.76693 29.4964 10.4526 37.2201 19.8986 37.2201V35.8399C11.2092 35.8399 4.1401 28.7345 4.1401 20.0019C4.1401 11.2692 11.2092 4.16112 19.8986 4.16112C20.901 4.16112 21.9007 4.25773 22.8797 4.44544C22.7259 4.9368 22.6477 5.40332 22.6175 5.82152C21.7249 5.64899 20.8145 5.56342 19.8986 5.56342C16.1636 5.56342 12.6249 6.99747 9.93487 9.60056C7.25307 12.1968 5.69453 15.6832 5.54623 19.4181C5.53799 19.6223 5.53524 19.8142 5.53524 20.0005C5.53524 27.9616 11.9781 34.4376 19.8986 34.4376C27.819 34.4376 34.2619 27.9616 34.2619 20.0005C34.2619 17.2553 33.4916 14.5845 32.036 12.2768ZM25.2608 20.1344V23.2496C24.6676 23.2385 23.7201 23.0784 22.9594 22.2986C22.2563 21.5767 22.086 20.7044 22.0599 20.1344H25.2608ZM19.9 6.94364C20.9957 6.94364 22.0833 7.08028 23.1338 7.35219C23.348 7.40739 23.5759 7.35495 23.7448 7.21278C23.9137 7.06924 24.0043 6.85393 23.9879 6.63171C23.9412 6.01751 23.9934 5.08172 24.4987 4.11005C24.7211 3.68356 24.9862 3.33437 25.2594 3.05004V18.7556H21.637C20.8365 18.1082 19.8121 17.0455 19.1447 15.4789C18.7657 14.5859 18.5433 13.6349 18.4883 12.6508C18.4719 12.3527 18.2659 12.0988 17.9775 12.0228C17.6905 11.9469 17.3871 12.0643 17.225 12.3155C15.9576 14.2878 15.293 16.5141 15.2353 18.7542H6.96608C7.5895 12.0753 13.1385 6.94364 19.8972 6.94364H19.9ZM19.6404 18.7542H16.6126C16.651 17.4126 16.9339 16.0779 17.4626 14.8137C17.5765 15.225 17.718 15.628 17.8855 16.0213C18.3661 17.1504 19.0046 18.0516 19.6418 18.7542H19.6404ZM19.9 33.0574C12.7814 33.0574 6.98256 27.2715 6.91115 20.1344H15.2792C15.4344 21.9383 15.985 23.7216 16.9353 25.3544C18.925 28.7746 22.3456 30.9857 26.1726 31.4315C24.3119 32.4667 22.1739 33.0574 19.9 33.0574ZM28.0936 30.1258C24.0016 30.2983 20.1897 28.2156 18.1203 24.6588C17.2964 23.2413 16.8103 21.6996 16.6593 20.1344H20.6854C20.7129 20.9501 20.9463 22.2061 21.9789 23.2647C23.6295 24.9569 25.8252 24.6174 26.0696 24.5732C26.3964 24.5138 26.634 24.2281 26.634 23.8941V8.8304C30.52 11.1906 32.8901 15.374 32.8901 20.0005C32.8901 24.0804 31.0185 27.7297 28.0936 30.1258Z" fill="#FF0043"/>
<path id="Vector_3" d="M23.7476 13.3066L21.9323 11.1313C21.3336 11.6351 21.2567 12.5309 21.7579 13.1327C22.2591 13.7331 23.1489 13.8104 23.7476 13.3066Z" fill="#FF0043"/>
</g>
</g>
</svg>
