<svg width="80" height="44" viewBox="0 0 80 44" fill="none" xmlns="http://www.w3.org/2000/svg">
<g id="Group 63569">
<rect id="Rectangle 51" x="40" y="0.86792" width="40" height="42.2642" fill="#222831"/>
<rect id="Rectangle 52" x="0.5" y="1.36792" width="39" height="41.2642" stroke="#222831"/>
<path id="A_x2B_Rating" d="M55.8654 22.1865L54.9094 19.7583H50.1486L49.25 22.1865H46.0378L51.1811 9.85425H54.0681L59.1731 22.1865H55.8654ZM52.5768 13.1237L51.009 17.3683H54.0873L52.5768 13.1237ZM65.8459 17.9993V21.6511H63.5898V17.9993H59.8997V15.8005H63.5707V12.1486H65.8268V15.8005H69.5169V17.9993H65.8459ZM47.8733 33.1612H47.185V26.2972H49.1926C49.5176 26.2972 49.8427 26.3355 50.1295 26.3928C50.4163 26.4502 50.6648 26.5649 50.8751 26.6987C51.0855 26.8517 51.2384 27.0238 51.3531 27.2723C51.4678 27.5018 51.5252 27.7886 51.5252 28.1327C51.5252 28.3813 51.487 28.6107 51.3914 28.821C51.2958 29.0314 51.1811 29.2034 51.0281 29.3564C50.8751 29.5093 50.6839 29.6241 50.4736 29.7197C50.2633 29.8153 50.0339 29.8726 49.7853 29.8917L51.7738 33.1612H50.9325L49.0396 29.9491H47.8925V33.1612H47.8733ZM47.8733 29.3564H49.0779C49.6324 29.3564 50.0721 29.2608 50.378 29.0505C50.6839 28.8402 50.8369 28.5342 50.8369 28.1327C50.8369 27.9033 50.7987 27.7121 50.7031 27.5591C50.6266 27.4062 50.5119 27.2723 50.3589 27.1767C50.2059 27.0811 50.0339 27.0047 49.8235 26.9664C49.6132 26.9282 49.3838 26.8899 49.1161 26.8899H47.8733V29.3564ZM55.6551 30.2359C55.6551 29.8344 55.5595 29.5476 55.3492 29.3564C55.1388 29.1652 54.852 29.0696 54.4505 29.0696C54.1829 29.0696 53.9343 29.127 53.7049 29.2225C53.4754 29.3181 53.2842 29.452 53.1121 29.6049L52.7489 29.1652C52.9401 28.974 53.1886 28.821 53.4945 28.7063C53.8005 28.5916 54.1446 28.5151 54.527 28.5151C54.7756 28.5151 55.005 28.5534 55.2153 28.6107C55.4256 28.6681 55.6168 28.7828 55.7698 28.9166C55.9227 29.0505 56.0566 29.2226 56.1522 29.4329C56.2478 29.6432 56.286 29.8726 56.286 30.1594V32.1479C56.286 32.32 56.286 32.5111 56.3051 32.6832C56.3243 32.8744 56.3434 33.0274 56.3625 33.1612H55.7698C55.7507 33.0465 55.7316 32.9318 55.7124 32.7979C55.6933 32.6641 55.6933 32.5494 55.6933 32.4156H55.6742C55.4639 32.7215 55.2344 32.9318 54.9668 33.0656C54.6991 33.1995 54.3932 33.2568 54.0299 33.2568C53.8578 33.2568 53.6857 33.2377 53.4945 33.1803C53.3033 33.123 53.1504 33.0465 52.9974 32.9509C52.8445 32.8362 52.7298 32.7023 52.615 32.5303C52.5194 32.3582 52.4621 32.1479 52.4621 31.8993C52.4621 31.5552 52.5577 31.2684 52.7298 31.0772C52.9018 30.8668 53.1504 30.7139 53.4372 30.6183C53.724 30.5227 54.0681 30.4462 54.4505 30.4271C54.8329 30.3889 55.2344 30.3889 55.636 30.3889V30.2359H55.6551ZM55.4639 30.886C55.1962 30.886 54.9285 30.9051 54.6417 30.9242C54.3741 30.9433 54.1255 31.0007 53.8961 31.058C53.6666 31.1345 53.4945 31.2301 53.3607 31.3448C53.2269 31.4596 53.1504 31.6508 53.1504 31.8611C53.1504 32.014 53.1886 32.167 53.246 32.2626C53.3033 32.3582 53.3798 32.4538 53.4945 32.5303C53.6093 32.6067 53.7049 32.645 53.8387 32.6832C53.9725 32.7215 54.0873 32.7215 54.2211 32.7215C54.4505 32.7215 54.6608 32.6832 54.8329 32.6067C55.005 32.5303 55.158 32.4155 55.2918 32.2817C55.4065 32.1479 55.5021 31.9758 55.5786 31.8037C55.6551 31.6316 55.6742 31.4404 55.6742 31.2301V30.886H55.4639ZM59.8805 29.1652H58.5995V31.8037C58.5995 31.9758 58.6186 32.1096 58.6569 32.2244C58.6951 32.3391 58.7334 32.4155 58.7907 32.4729C58.8481 32.5303 58.9245 32.5685 59.001 32.6067C59.0775 32.6259 59.1731 32.645 59.2687 32.645C59.3643 32.645 59.4599 32.6259 59.5555 32.6067C59.6511 32.5876 59.7467 32.5494 59.8423 32.492L59.8805 33.0656C59.7658 33.1039 59.6511 33.1421 59.5173 33.1612C59.3834 33.1803 59.2496 33.1995 59.1157 33.1995C59.001 33.1995 58.8672 33.1803 58.7334 33.1421C58.5995 33.1039 58.4657 33.0465 58.351 32.9509C58.2362 32.8553 58.1406 32.7406 58.0642 32.5876C57.9877 32.4347 57.9494 32.2243 57.9494 31.9758V29.1461H57.0126V28.5916H57.9494V27.3106H58.5995V28.5916H59.8805V29.1652ZM61.5822 33.1612H60.9321V28.6298H61.5822V33.1612ZM61.716 26.8708C61.716 27.0047 61.6587 27.1194 61.5631 27.1959C61.4675 27.2915 61.3528 27.3297 61.238 27.3297C61.1233 27.3297 61.0086 27.2915 60.913 27.1959C60.8174 27.1003 60.76 27.0047 60.76 26.8708C60.76 26.737 60.8174 26.6223 60.913 26.5458C61.0086 26.4502 61.1233 26.4119 61.238 26.4119C61.3528 26.4119 61.4675 26.4502 61.5631 26.5458C61.6587 26.6223 61.716 26.737 61.716 26.8708ZM63.8957 28.6298C63.9148 28.7446 63.9148 28.8975 63.9339 29.0314C63.9339 29.1843 63.953 29.299 63.953 29.3946H63.9722C64.106 29.1269 64.3163 28.9166 64.6031 28.7446C64.8899 28.5725 65.1958 28.496 65.5209 28.496C66.0945 28.496 66.5151 28.6681 66.8019 29.0122C67.0887 29.3564 67.2225 29.8153 67.2225 30.3697V33.1421H66.5724V30.6374C66.5724 30.408 66.5533 30.1785 66.5151 29.9873C66.4769 29.7961 66.4195 29.6241 66.3239 29.4902C66.2283 29.3564 66.1136 29.2417 65.9415 29.1652C65.7885 29.0887 65.5782 29.0505 65.3488 29.0505C65.1767 29.0505 65.0046 29.0887 64.8517 29.1652C64.6796 29.2417 64.5458 29.3373 64.4119 29.4902C64.2781 29.6432 64.1825 29.8153 64.106 30.0447C64.0295 30.2741 63.9913 30.5227 63.9913 30.8286V33.1612H63.3412V29.6241C63.3412 29.5093 63.3412 29.3373 63.3221 29.1461C63.3221 28.9549 63.303 28.7828 63.2839 28.6298H63.8957ZM69.1536 34.0598C69.3257 34.2893 69.5742 34.4805 69.8993 34.6526C70.2052 34.8055 70.5494 34.9011 70.8935 34.9011C71.2185 34.9011 71.4862 34.8629 71.7157 34.7673C71.9451 34.6717 72.1172 34.5378 72.251 34.3849C72.3849 34.2319 72.4996 34.0407 72.5569 33.8113C72.6143 33.601 72.6525 33.3715 72.6525 33.123V32.2626H72.6143C72.4422 32.5494 72.1937 32.7597 71.8686 32.9127C71.5436 33.0656 71.2185 33.1421 70.8935 33.1421C70.5494 33.1421 70.2243 33.0847 69.9375 32.97C69.6507 32.8553 69.4022 32.7023 69.211 32.492C69.0007 32.2817 68.8477 32.0523 68.733 31.7655C68.6183 31.4787 68.5609 31.1728 68.5609 30.8477C68.5609 30.5227 68.6183 30.2168 68.733 29.93C68.8477 29.6432 69.0007 29.3946 69.211 29.1843C69.4213 28.974 69.6507 28.8019 69.9375 28.6872C70.2243 28.5725 70.5494 28.496 70.8935 28.496C71.2185 28.496 71.5436 28.5725 71.8495 28.7254C72.1554 28.8784 72.404 29.1078 72.5952 29.3946H72.6143V28.6107H73.2644V33.1039C73.2644 33.3524 73.2261 33.6201 73.1688 33.8878C73.0923 34.1746 72.9776 34.4231 72.7864 34.6526C72.5952 34.882 72.3466 35.0732 72.0407 35.2261C71.7348 35.3791 71.3141 35.4556 70.817 35.4556C70.3964 35.4556 69.9949 35.3791 69.6316 35.207C69.2492 35.0541 68.9242 34.8246 68.6565 34.5378L69.1536 34.0598ZM69.2875 30.8286C69.2875 31.058 69.3257 31.2875 69.4022 31.4978C69.4787 31.7081 69.5934 31.8993 69.7272 32.0523C69.8802 32.2052 70.0522 32.3391 70.2626 32.4347C70.4729 32.5303 70.7214 32.5685 70.9891 32.5685C71.2377 32.5685 71.4671 32.5303 71.6774 32.4347C71.8877 32.3582 72.0789 32.2243 72.2319 32.0714C72.3849 31.9184 72.4996 31.7272 72.5952 31.5169C72.6908 31.3066 72.729 31.058 72.729 30.7904C72.729 30.5609 72.6908 30.3315 72.5952 30.1212C72.4996 29.9109 72.3849 29.7197 72.2319 29.5667C72.0789 29.4137 71.8877 29.2799 71.6774 29.1843C71.4671 29.0887 71.2377 29.0314 70.9891 29.0314C70.7214 29.0314 70.4729 29.0887 70.2626 29.1843C70.0522 29.2799 69.8802 29.4137 69.7272 29.5667C69.5742 29.7197 69.4787 29.9109 69.4022 30.1212C69.3257 30.3697 69.2875 30.5992 69.2875 30.8286Z" fill="white"/>
<path id="BBB-Logo" d="M30.3178 37.8042C30.4708 37.8042 30.6237 37.8616 30.7193 37.9763C30.834 38.091 30.8914 38.2248 30.8914 38.3778C30.8914 38.5308 30.834 38.6837 30.7193 38.7984C30.6046 38.9132 30.4708 38.9705 30.3178 38.9705C30.1648 38.9705 30.0119 38.9132 29.9163 38.7984C29.8016 38.6837 29.7442 38.5499 29.7442 38.3778C29.7442 38.2248 29.8016 38.091 29.9163 37.9763C30.031 37.8616 30.1648 37.8042 30.3178 37.8042ZM30.3178 37.8807C30.184 37.8807 30.0692 37.9381 29.9736 38.0336C29.878 38.1292 29.8207 38.244 29.8207 38.3778C29.8207 38.5116 29.878 38.6264 29.9736 38.7411C30.0692 38.8367 30.184 38.894 30.3178 38.894C30.4516 38.894 30.5664 38.8367 30.662 38.7411C30.7576 38.6455 30.8149 38.5308 30.8149 38.3778C30.8149 38.244 30.7576 38.1292 30.662 38.0336C30.5855 37.9381 30.4516 37.8807 30.3178 37.8807ZM12.5364 31.3417C13.3968 31.3417 14.1043 31.5521 14.5249 31.9918C14.8882 32.3551 15.022 32.7757 15.022 33.2728C15.022 34.1332 14.6014 34.6303 14.0278 34.9171C14.8882 35.2804 15.4426 35.7775 15.4426 36.7717C15.4426 38.0719 14.391 38.7984 12.785 38.8367H12.6129H9.05664V31.3226H12.5364V31.3417ZM19.6299 31.3417C20.4902 31.3417 21.1977 31.5521 21.6183 31.9918C21.9816 32.3551 22.1154 32.7757 22.1154 33.2728C22.1154 34.1332 21.6948 34.6303 21.1212 34.9171C21.9816 35.2804 22.5361 35.7775 22.5361 36.7717C22.5361 38.0719 21.4845 38.7984 19.8784 38.8367H19.7063H16.1501V31.3226H19.6299V31.3417ZM26.7424 31.3417C27.6028 31.3417 28.3102 31.5521 28.7309 31.9918C29.0941 32.3551 29.228 32.7757 29.228 33.2728C29.228 34.1332 28.8073 34.6303 28.2337 34.9171C29.0941 35.2804 29.6486 35.7775 29.6486 36.7717C29.6486 38.0719 28.597 38.7984 26.991 38.8367H26.8189H23.2626V31.3226H26.7424V31.3417ZM30.3178 38.0719C30.3943 38.0719 30.4516 38.0719 30.4899 38.091C30.5472 38.1101 30.5855 38.1675 30.5855 38.244C30.5855 38.3013 30.5664 38.3396 30.5281 38.3778C30.509 38.3969 30.4708 38.3969 30.4325 38.416C30.4899 38.416 30.509 38.4543 30.5472 38.4734C30.5664 38.5116 30.5855 38.5308 30.5855 38.569V38.6072C30.5855 38.6264 30.5855 38.6455 30.5855 38.6455C30.5855 38.6646 30.5855 38.6646 30.5855 38.6837H30.4899V38.6646V38.6072C30.4899 38.5308 30.4708 38.4925 30.4325 38.4543C30.4134 38.4352 30.3752 38.4352 30.2987 38.4352H30.2031V38.6837H30.0884V38.0528H30.3178V38.0719ZM12.6129 35.7775H10.6245V37.4218H12.6129C13.3203 37.4218 13.8175 37.135 13.8175 36.6379C13.8175 36.1408 13.4542 35.7775 12.6129 35.7775ZM19.7063 35.7775H17.7179V37.4218H19.7063C20.4138 37.4218 20.9109 37.135 20.9109 36.6379C20.9109 36.1408 20.5667 35.7775 19.7063 35.7775ZM26.7424 35.7775H24.8304V37.4218H26.7998C27.5072 37.4218 27.9278 37.135 27.9278 36.6379C27.9469 36.1408 27.5837 35.7775 26.7424 35.7775ZM12.3261 32.8522H10.6245V34.42H12.1923C12.8997 34.42 13.3968 34.2097 13.3968 33.6361C13.3968 33.139 13.0335 32.8522 12.3261 32.8522ZM19.4195 32.8522H17.7179V34.42H19.2857C19.9931 34.42 20.4902 34.2097 20.4902 33.6361C20.4902 33.139 20.127 32.8522 19.4195 32.8522ZM26.513 32.8522H24.8878V34.42H26.3791C27.0866 34.42 27.5837 34.2097 27.5837 33.6361C27.5837 33.139 27.2204 32.8522 26.513 32.8522ZM25.6717 26.4088L26.1497 27.9193H22.7655L22.1345 30.0607H16.5325L15.9015 27.9193H12.5173L12.9953 26.4088H25.6717ZM16.6281 15.4532L17.0678 15.8165C17.0678 15.8165 16.6281 16.4283 17.2208 17.0019L17.3164 17.0784L20.1843 19.1625C20.7388 19.6022 21.1212 20.1949 21.3124 20.845C21.3698 21.0362 21.561 21.9731 21.2168 22.8717C21.1594 23.0055 21.083 23.1394 21.0256 23.2732L20.9109 23.4644L19.2857 25.6823L18.8268 25.2999C18.846 25.2808 18.8651 25.2617 18.8651 25.2425C18.8842 25.2043 18.9033 25.1852 18.9224 25.1469C19.018 24.9749 19.018 24.8028 18.9798 24.6881C18.9798 24.6498 18.9607 24.6307 18.9607 24.5925V24.5733C18.9607 24.5542 18.9416 24.5351 18.9224 24.516L18.9033 24.4777L18.8842 24.4395L18.846 24.3821C18.7886 24.3248 18.7312 24.2674 18.6739 24.2101L18.6356 24.1718L15.6721 22.0495C15.0411 21.5524 14.6014 20.8259 14.4675 20.042C14.4484 19.889 14.4484 19.7169 14.4484 19.564C14.4484 18.933 14.5822 18.3594 14.9073 17.8432L15.022 17.6711L16.1883 16.1033L16.6281 15.4532ZM19.2857 5.39624L19.649 5.68304C19.4387 5.96983 19.3622 6.33311 19.4387 6.67727C19.496 6.98318 19.6681 7.25086 19.8975 7.44206L19.9931 7.51853L24.601 10.8836C25.5952 11.591 26.1688 12.6044 26.3791 13.7516C26.5703 14.8223 26.3409 15.9503 25.7291 16.8681L25.5952 17.0402L22.5361 21.2656L22.1154 20.9597C22.1154 20.9597 22.3257 20.6729 22.4405 20.2714L22.4787 20.1567L22.5169 20.0037C22.5552 19.8125 22.5552 19.6213 22.5552 19.4301L22.5361 19.2963V19.2581C22.5169 19.1051 22.4787 18.9713 22.4213 18.8183C22.4213 18.7992 22.4213 18.7992 22.4022 18.7801C22.2684 18.4359 22.0198 18.1109 21.733 17.8623L21.5992 17.7667L17.7752 14.9752C16.781 14.2678 16.2074 13.2545 15.9971 12.1073C15.9206 11.897 15.9206 11.6102 15.9206 11.3998C15.9206 10.5395 16.1501 9.75554 16.6281 9.02899L16.7619 8.83779L19.2857 5.39624Z" fill="#222831"/>
</g>
</svg>
