<svg width="66" height="68" viewBox="0 0 66 68" fill="none" xmlns="http://www.w3.org/2000/svg">
<g id="Group 105">
<path id="Ellipse 14" d="M32.9996 38.7215C35.5611 38.7215 37.6376 36.645 37.6376 34.0835C37.6376 31.5219 35.5611 29.4454 32.9996 29.4454C30.4381 29.4454 28.3616 31.5219 28.3616 34.0835C28.3616 36.645 30.4381 38.7215 32.9996 38.7215Z" stroke="#FF2760" stroke-width="2.10602" stroke-linecap="round" stroke-linejoin="round"/>
<path id="Path 72" d="M46.887 36.0447V32.1221L42.9899 31.5115C42.7495 30.5695 42.3755 29.6667 41.8795 28.8306L44.2062 25.647L41.4327 22.8736L38.2491 25.1992C37.4123 24.7041 36.5093 24.3306 35.5672 24.0898L34.9637 20.1927H31.0412L30.4305 24.0898C29.4887 24.3304 28.5861 24.7039 27.7497 25.1992L24.5661 22.8736L21.7926 25.647L24.1183 28.8306C23.6231 29.6672 23.2492 30.5698 23.0079 31.5115L19.1118 32.1221V36.0447L23.0079 36.6553C23.2494 37.5969 23.6232 38.4995 24.1183 39.3362L21.7926 42.5198L24.5661 45.2932L27.7497 42.9676C28.5861 43.4629 29.4887 43.8364 30.4305 44.077L31.0412 47.974H34.9637L35.5693 44.077C36.5113 43.8362 37.4143 43.4627 38.2511 42.9676L41.4347 45.2932L44.2082 42.5198L41.8816 39.3362C42.3774 38.5 42.7513 37.5972 42.992 36.6553L46.887 36.0447Z" stroke="#FF2760" stroke-width="2.10602" stroke-linecap="round" stroke-linejoin="round"/>
<g id="Group 104">
<path id="Path 73" d="M33.0005 58.0419C26.6463 58.0419 20.5523 55.5177 16.0592 51.0247C11.5662 46.5316 9.04202 40.4376 9.04202 34.0834C9.04296 29.5708 10.3193 25.1502 12.7238 21.3315C15.1284 17.5128 18.5632 14.4515 22.6324 12.5004L23.8059 16.5715L32.7746 6.09554L19.6055 2L20.6609 5.66401C15.1187 8.0668 10.3996 12.0371 7.08417 17.0867C3.76874 22.1362 2.00156 28.0448 2 34.0855C2 38.1565 2.80183 42.1876 4.35976 45.9487C5.9177 49.7098 8.20119 53.1272 11.0799 56.0058C13.9585 58.8844 17.3761 61.1678 21.1372 62.7256C24.8984 64.2834 28.9295 65.0851 33.0005 65.085" stroke="#FF2760" stroke-width="2.10602" stroke-linecap="round" stroke-linejoin="round"/>
<path id="Path 74" d="M32.7747 10.131C32.85 10.131 32.9243 10.1249 33.0006 10.1249C39.3548 10.1249 45.4487 12.6491 49.9418 17.1421C54.4349 21.6352 56.9591 27.7292 56.9591 34.0834C56.9579 38.6336 55.6604 43.0893 53.2183 46.9286C50.7763 50.768 47.2909 53.8321 43.1702 55.762L41.9693 51.5891L33.0006 62.0651L46.1696 66.1607L45.1396 62.5893C50.7328 60.2098 55.5029 56.2383 58.8563 51.1687C62.2098 46.0992 63.9986 40.1556 64.0001 34.0773C64.0001 25.8557 60.7341 17.9708 54.9205 12.1573C49.107 6.34377 41.2222 3.07776 33.0006 3.07776C32.9243 3.07776 32.85 3.08285 32.7747 3.08285" stroke="#FF2760" stroke-width="2.10602" stroke-linecap="round" stroke-linejoin="round"/>
</g>
</g>
</svg>
