<svg width="86" height="68" viewBox="0 0 86 68" fill="none" xmlns="http://www.w3.org/2000/svg">
<g id="Group 63550">
<g id="Group 98">
<path id="Path 50" d="M8.41772 28.465L32.8495 12.3302H76.027L84.3878 27.3166L74.381 33.925L73.7647 33.7841L72.0701 49.8591L70.2386 51.0693L68.2936 51.1028L63.8633 54.0319L63.618 55.4448L59.3236 58.2828L57.3786 58.3162L52.9189 61.2616L52.6736 62.6745L47.6383 66H12.3736L8.41772 28.465Z" stroke="#FF2760" stroke-width="2.1057" stroke-linecap="round" stroke-linejoin="round"/>
<path id="Path 51" d="M8.41772 28.465H51.5952L76.027 12.3302" stroke="#FF2760" stroke-width="2.1057" stroke-linecap="round" stroke-linejoin="round"/>
<path id="Line 5" d="M32.8496 12.3302L34.5504 28.465" stroke="#FF2760" stroke-width="2.1057" stroke-linecap="round" stroke-linejoin="round"/>
<path id="Line 6" d="M51.5943 28.465L47.6384 65.9939" stroke="#FF2760" stroke-width="2.1057" stroke-linecap="round" stroke-linejoin="round"/>
<path id="Path 52" d="M51.5945 28.4651L58.2698 40.425L69.729 32.8568L74.3813 33.92L84.3881 27.3116L76.0273 12.3252" stroke="#FF2760" stroke-width="2.1057" stroke-linecap="round" stroke-linejoin="round"/>
<path id="Path 53" d="M8.41784 28.465L2 41.0381L9.38376 37.6316" stroke="#FF2760" stroke-width="2.1057" stroke-linecap="round" stroke-linejoin="round"/>
<path id="Path 54" d="M52.6736 62.6695L55.697 46.8023L59.0975 44.4407L59.3235 58.2777" stroke="#FF2760" stroke-width="2.1057" stroke-linecap="round" stroke-linejoin="round"/>
<path id="Path 55" d="M63.6194 55.4407L66.6154 39.7205L70.0159 37.3589L70.2399 51.0682" stroke="#FF2760" stroke-width="2.1057" stroke-linecap="round" stroke-linejoin="round"/>
</g>
<path id="Line 7" d="M37.7148 12.3302L53.2121 2" stroke="#FF2760" stroke-width="2.1057" stroke-linecap="round" stroke-linejoin="round"/>
<path id="Line 8" d="M49.5024 12.3301L61.285 4.47607" stroke="#FF2760" stroke-width="2.1057" stroke-linecap="round" stroke-linejoin="round"/>
<path id="Line 9" d="M60.5288 12.3302L76.0261 2" stroke="#FF2760" stroke-width="2.1057" stroke-linecap="round" stroke-linejoin="round"/>
<path id="Line 10" d="M45.4631 12.3302L53.5412 6.94617" stroke="#FF2760" stroke-width="2.1057" stroke-linecap="round" stroke-linejoin="round"/>
</g>
</svg>
