<svg width="93" height="67" viewBox="0 0 93 67" fill="none" xmlns="http://www.w3.org/2000/svg">
<g id="Group 63552">
<path id="Path 37" d="M29.5764 57.6535H11.9964L6.35059 43.9279H29.6883L32.5808 50.9635" stroke="#FF2760" stroke-width="2.11956" stroke-linejoin="round"/>
<g id="Group 94">
<path id="Ellipse 12" d="M37.5515 65.2655C41.9689 65.2655 45.55 61.6845 45.55 57.2671C45.55 52.8496 41.9689 49.2686 37.5515 49.2686C33.134 49.2686 29.553 52.8496 29.553 57.2671C29.553 61.6845 33.134 65.2655 37.5515 65.2655Z" stroke="#FF2760" stroke-width="2.11956" stroke-linejoin="round"/>
</g>
<g id="Group 95">
<path id="Path 39" d="M21.6592 57.6585C21.5587 59.7098 20.6732 61.6438 19.1859 63.0601C17.6986 64.4764 15.7236 65.2664 13.6699 65.2666C11.5485 65.2663 9.51402 64.4234 8.01404 62.9232C6.51406 61.423 5.67139 59.3885 5.67139 57.267C5.67113 55.9578 5.99255 54.6686 6.60737 53.5127C7.22219 52.3568 8.11159 51.3696 9.19736 50.6381" stroke="#FF2760" stroke-width="2.11956" stroke-linejoin="round"/>
</g>
<path id="Path 41" d="M39.8333 49.4314L64.7712 3.83272C65.0334 3.35301 65.4037 2.94093 65.8528 2.62911C66.3018 2.31728 66.8172 2.11428 67.3583 2.03615C67.8994 1.95802 68.4512 2.00692 68.9701 2.17899C69.489 2.35105 69.9607 2.64155 70.3479 3.02749C70.8682 3.54635 71.2133 4.21485 71.3348 4.93949C71.4564 5.66413 71.3485 6.40866 71.0261 7.06892L69.6718 9.83947" stroke="#FF2760" stroke-width="2.11956" stroke-linejoin="round"/>
<path id="Path 42" d="M36.8582 12.8256L41.776 3.83272C42.0382 3.35301 42.4085 2.94093 42.8575 2.62911C43.3065 2.31728 43.822 2.11428 44.3631 2.03615C44.9041 1.95802 45.456 2.00692 45.9749 2.17899C46.4938 2.35105 46.9655 2.64155 47.3527 3.02749C47.8733 3.5461 48.2187 4.21463 48.3403 4.93938C48.4619 5.66413 48.3537 6.40876 48.0308 7.06892L46.6776 9.83947" stroke="#FF2760" stroke-width="2.11956" stroke-linejoin="round"/>
<path id="Path 43" d="M38.2368 10.3051H60.8303" stroke="#FF2760" stroke-width="2.11956" stroke-linejoin="round"/>
<path id="Line 2" d="M38.2371 10.3051L37.9158 15.5401" stroke="#FF2760" stroke-width="2.11956" stroke-linejoin="round"/>
<path id="Path 44" d="M39.833 49.4314L46.4254 37.3782L36.2358 11.2303H12.8982L2 32.0079L11.9953 57.6597" stroke="#FF2760" stroke-width="2.11956" stroke-linejoin="round"/>
<path id="Path 45" d="M2.00098 32.0068H25.3386L32.7058 50.9177" stroke="#FF2760" stroke-width="2.11956" stroke-linejoin="round"/>
<path id="Line 3" d="M25.3389 32.0079L36.237 11.2303" stroke="#FF2760" stroke-width="2.11956" stroke-linejoin="round"/>
<g id="Group 63551">
<path id="Path 46" d="M74.6674 16.2959L76.6815 19.4996L79.5873 17.0757L80.5135 20.7451L84.0263 19.3369L83.7731 23.113L87.5492 22.8598L86.141 26.3726L89.8104 27.2988L87.3865 30.2046L90.5902 32.2187L87.3865 34.2328L89.8104 37.1386L86.141 38.0648L87.5492 41.5775L83.7731 41.3244L84.0263 45.1004L80.5135 43.6923L79.5873 47.3616L76.6815 44.9378L74.6674 48.1414L72.6533 44.9378L69.7475 47.3616L68.8213 43.6923L65.3086 45.1004L65.5617 41.3244L61.7856 41.5775L63.1938 38.0648L59.5244 37.1386L61.9483 34.2328L58.7446 32.2187L61.9483 30.2046L59.5244 27.2988L63.1938 26.3726L61.7816 22.8639L65.5577 23.117L65.3045 19.341L68.8172 20.7491L69.7435 17.0798L72.6492 19.5036L74.6674 16.2959Z" stroke="#FF2760" stroke-width="2.11956" stroke-linejoin="round"/>
<g id="Group 96">
<path id="Path 47" d="M66.5003 44.588L58.334 60.3197L65.2426 60.1854L69.1061 65.9126L79.1716 46.5259" stroke="#FF2760" stroke-width="2.11956" stroke-linejoin="round"/>
<path id="Path 48" d="M82.8337 44.588L90.9999 60.3197L84.0914 60.1854L80.2278 65.9126L74.6685 55.2025" stroke="#FF2760" stroke-width="2.11956" stroke-linejoin="round"/>
</g>
</g>
</g>
</svg>
