<svg width="75" height="68" viewBox="0 0 75 68" fill="none" xmlns="http://www.w3.org/2000/svg">
<g id="Group 63553">
<g id="Group 102">
<g id="Group 101">
<g id="Group 100">
<path id="Ellipse 13" d="M48.8917 8.55762C56.352 8.55762 62.3997 7.08965 62.3997 5.27881C62.3997 3.46797 56.352 2 48.8917 2C41.4315 2 35.3838 3.46797 35.3838 5.27881C35.3838 7.08965 41.4315 8.55762 48.8917 8.55762Z" stroke="#FF2760" stroke-width="2.10644" stroke-linecap="round" stroke-linejoin="round"/>
<path id="Path 57" d="M62.3972 62.7211C62.3972 64.5316 56.3494 65.9999 48.8892 65.9999C41.4291 65.9999 35.3813 64.5353 35.3813 62.7211" stroke="#FF2760" stroke-width="2.10644" stroke-linecap="round" stroke-linejoin="round"/>
<path id="Path 58" d="M35.384 62.7211C35.384 57.7379 24.4995 56.4262 24.4995 44.6236C24.4995 31.3774 35.384 29.5412 37.8756 20.6238C39.6825 14.1568 35.384 5.27966 35.384 5.27966" stroke="#FF2760" stroke-width="2.10644" stroke-linecap="round" stroke-linejoin="round"/>
<path id="Path 59" d="M62.4273 62.7211C62.4273 57.7379 73.3118 56.4262 73.3118 44.6236C73.3118 31.3774 62.4273 29.5412 59.9348 20.6238C58.1288 14.1568 62.4273 5.27966 62.4273 5.27966" stroke="#FF2760" stroke-width="2.10644" stroke-linecap="round" stroke-linejoin="round"/>
</g>
<path id="Path 60" d="M64.9598 28.3322V33.6714L61.5886 35.3767L59.4906 34.4614L56.4086 36.7562L47.5561 35.904L46.1831 38.7892" stroke="#FF2760" stroke-width="2.10644" stroke-linecap="round" stroke-linejoin="round"/>
<path id="Path 61" d="M49.4597 46.9176L51.4927 42.9816V36.2784" stroke="#FF2760" stroke-width="2.10644" stroke-linecap="round" stroke-linejoin="round"/>
<path id="Path 62" d="M51.4917 40.36L53.9833 40.8177L55.1632 43.8997" stroke="#FF2760" stroke-width="2.10644" stroke-linecap="round" stroke-linejoin="round"/>
<path id="Path 63" d="M54.5981 42.424L57.141 41.0464L60.4098 42.1311" stroke="#FF2760" stroke-width="2.10644" stroke-linecap="round" stroke-linejoin="round"/>
<path id="Path 64" d="M57.7563 35.751L56.6066 32.0319L52.4756 30.1307" stroke="#FF2760" stroke-width="2.10644" stroke-linecap="round" stroke-linejoin="round"/>
<path id="Line 11" d="M56.0822 27.901L55.1641 31.3684" stroke="#FF2760" stroke-width="2.10644" stroke-linecap="round" stroke-linejoin="round"/>
<path id="Path 65" d="M63.1597 34.5831L67.9507 36.7544L69.3933 41.5994L68.0202 45.6068" stroke="#FF2760" stroke-width="2.10644" stroke-linecap="round" stroke-linejoin="round"/>
<path id="Path 66" d="M71.2952 46.0617V43.1106L69.2109 42.1266" stroke="#FF2760" stroke-width="2.10644" stroke-linecap="round" stroke-linejoin="round"/>
</g>
<path id="Path 67" d="M38.3232 16.0315C35.6559 15.8668 29.0379 14.967 20.7978 10.2922C10.0076 16.4123 2 16.059 2 16.059V38.6162C2 55.0569 20.7978 60.8273 20.7978 60.8273C24.0307 59.7209 27.0817 58.1415 29.8516 56.1407" stroke="#FF2760" stroke-width="2.10644" stroke-linecap="round" stroke-linejoin="round"/>
</g>
</g>
</svg>
